<svg width="728" height="576" viewBox="0 0 728 576" fill="none" xmlns="http://www.w3.org/2000/svg">
<path d="M313.714 539.772C293.741 501.936 268.498 406.755 304.768 388.881C429.657 327.338 566.273 327.958 759.176 349.096C821.145 355.887 793.006 475.67 752.134 525.324C711.513 574.673 575.475 539.772 575.475 539.772C575.475 539.772 356.75 621.293 313.714 539.772Z" fill="#0B57B3"/>
<rect width="248.753" height="249.341" rx="27" transform="matrix(0.996675 0.0814839 -0.072854 0.997343 18.166 273)" fill="#04346E"/>
<path d="M375.542 254.822C373.54 239.282 375.301 223.429 380.661 208.743L387.424 190.211C390.635 181.411 394.972 173.11 400.312 165.54L411.768 149.303C418.518 139.735 426.779 131.466 436.185 124.863L452.004 113.758C460.082 108.087 468.905 103.715 478.183 100.785L493.174 96.0505C510.978 90.428 529.998 91.1935 547.253 98.2269L550.322 99.4778C560.936 103.804 570.377 110.8 577.831 119.864C583.461 126.708 587.846 134.596 590.768 143.135L595.419 156.725C599.988 170.077 600.616 184.608 597.221 198.409C594.665 208.796 589.908 218.45 583.311 226.637L560.664 254.743C557.5 258.669 554.065 262.34 550.386 265.727L518.637 294.953C510.566 302.382 501.405 308.366 491.519 312.666L471.238 321.489C459.484 326.601 446.625 328.097 434.153 325.801C423.116 323.769 412.759 318.837 404.033 311.457L402.824 310.434C388.323 298.17 378.848 280.478 376.335 260.977L375.542 254.822Z" fill="#FBA541"/>
<path d="M442.128 132.945C432.834 130.129 424.446 124.973 417.744 117.958L415.339 115.441C410.43 110.302 406.377 104.394 403.332 97.9376L403.133 97.5157C399.198 89.1714 397.08 80.0466 396.92 70.744L396.903 69.7678C396.781 62.7005 397.895 55.6429 400.194 48.9175L400.85 46.9974C404.741 35.6109 412.369 25.6708 422.294 18.8951C428.243 14.8334 435.007 11.9587 442.018 10.5531C447.258 9.5026 452.611 9.25587 457.894 9.82133L468.25 10.9299C474.9 11.6417 481.175 14.2498 486.343 18.4495C491.081 22.3003 494.715 27.3496 496.888 33.0985L501.235 44.6045C503 49.2755 504.333 54.108 505.216 59.0413L507.641 72.5766C509.016 80.2537 508.858 88.159 507.177 95.8332L505.941 101.474C504.216 109.344 500.207 116.561 494.427 122.197C490.206 126.314 485.161 129.469 479.645 131.443L476.811 132.458C466.002 136.326 454.316 136.638 443.456 133.347L442.128 132.945Z" fill="#E28E83"/>
<path d="M306.029 353.874C297.872 350.54 290.64 345.285 284.95 338.556L283.361 336.677C280.08 332.797 277.541 328.346 275.869 323.547L275.657 322.939C273.342 316.29 272.864 309.139 274.274 302.24C275.373 296.862 277.591 291.775 280.785 287.309L281.625 286.135C287.231 278.296 295.161 272.419 304.291 269.336L307.292 268.323C312.967 266.406 318.915 265.418 324.905 265.395L326.14 265.39C331.184 265.371 336.212 265.954 341.116 267.128L352.497 269.851C357.278 270.995 361.689 273.334 365.317 276.648C369.586 280.548 372.593 285.635 373.952 291.256L375.569 297.947C376.513 301.855 376.997 305.861 377.011 309.882L377.039 317.951C377.062 324.688 375.417 331.325 372.252 337.273L371.843 338.04C368.211 344.865 362.585 350.422 355.715 353.97C351.663 356.063 347.268 357.41 342.74 357.948L337.659 358.551C327.397 359.768 316.996 358.357 307.432 354.448L306.029 353.874Z" fill="#D85747"/>
</svg>
