<svg width="42" height="39" viewBox="0 0 42 39" fill="none" xmlns="http://www.w3.org/2000/svg">
<path d="M21 39C18.5504 39 16.2553 38.5325 14.1147 37.5976C11.9739 36.6627 10.1073 35.3919 8.51506 33.7854C6.92281 32.1789 5.66338 30.2956 4.73676 28.1355C3.81014 25.9757 3.34683 23.66 3.34683 21.1884C3.34683 18.7168 3.81014 16.4011 4.73676 14.2414C5.66338 12.0813 6.92281 10.198 8.51506 8.59146C10.1073 6.98493 11.9739 5.7142 14.1147 4.77927C16.2553 3.84433 18.5504 3.37687 21 3.37687C23.4496 3.37687 25.7447 3.84433 27.8853 4.77927C30.0261 5.7142 31.8927 6.98493 33.4849 8.59146C35.0772 10.198 36.3366 12.0813 37.2632 14.2414C38.1899 16.4011 38.6532 18.7168 38.6532 21.1884C38.6532 23.66 38.1899 25.9757 37.2632 28.1355C36.3366 30.2956 35.0772 32.1789 33.4849 33.7854C31.8927 35.3919 30.0261 36.6627 27.8853 37.5976C25.7447 38.5325 23.4496 39 21 39ZM27.1745 29.6269L29.3634 27.4183L22.5576 20.5519V10.711H19.4424V21.8249L27.1745 29.6269ZM8.02752 0L10.2165 2.20811L2.18847 10.3082L0 8.09955L8.02752 0ZM33.9725 0L42 8.09955L39.8115 10.3082L31.7835 2.20811L33.9725 0ZM21 35.8568C25.0367 35.8568 28.4688 34.4303 31.2965 31.5773C34.1241 28.7243 35.5379 25.2613 35.5379 21.1884C35.5379 17.1155 34.1241 13.6526 31.2965 10.7996C28.4688 7.94658 25.0367 6.52008 21 6.52008C16.9633 6.52008 13.5312 7.94658 10.7035 10.7996C7.87591 13.6526 6.4621 17.1155 6.4621 21.1884C6.4621 25.2613 7.87591 28.7243 10.7035 31.5773C13.5312 34.4303 16.9633 35.8568 21 35.8568Z" fill="#10167F" fill-opacity="0.6"/>
</svg>
