<svg width="35" height="44" viewBox="0 0 35 44" fill="none" xmlns="http://www.w3.org/2000/svg">
<path d="M9.0625 35.2695H25.9375V31.8945H9.0625V35.2695ZM9.0625 26.2695H25.9375V22.8945H9.0625V26.2695ZM4.69244 43.707C3.55581 43.707 2.59375 43.3133 1.80625 42.5258C1.01875 41.7383 0.625 40.7762 0.625 39.6396V5.02447C0.625 3.88784 1.01875 2.92578 1.80625 2.13828C2.59375 1.35078 3.55581 0.957031 4.69244 0.957031H22.5625L34.375 12.7695V39.6396C34.375 40.7762 33.9813 41.7383 33.1938 42.5258C32.4062 43.3133 31.4442 43.707 30.3076 43.707H4.69244ZM20.875 14.457V4.33203H4.69244C4.51919 4.33203 4.36056 4.40422 4.21656 4.54859C4.07219 4.69259 4 4.85122 4 5.02447V39.6396C4 39.8128 4.07219 39.9715 4.21656 40.1155C4.36056 40.2598 4.51919 40.332 4.69244 40.332H30.3076C30.4808 40.332 30.6394 40.2598 30.7834 40.1155C30.9278 39.9715 31 39.8128 31 39.6396V14.457H20.875Z" fill="#10167F" fill-opacity="0.6"/>
</svg>
