<svg width="28" height="27" viewBox="0 0 28 27" fill="none" xmlns="http://www.w3.org/2000/svg">
<mask id="mask0_2860_9980" style="mask-type:alpha" maskUnits="userSpaceOnUse" x="0" y="0" width="28" height="27">
<rect x="0.5" y="0.169922" width="26.7178" height="26.7178" fill="#D9D9D9"/>
</mask>
<g mask="url(#mask0_2860_9980)">
<path d="M2.72656 26.8893V23.5496H24.9914V26.8893H2.72656ZM7.17954 18.4437H8.55606L17.796 9.22072L17.096 8.51019L16.4025 7.82722L7.17954 17.0671V18.4437ZM5.50967 20.1135V16.3563L17.9889 3.8944C18.1501 3.73317 18.3331 3.61118 18.538 3.52842C18.7426 3.44567 18.9556 3.4043 19.177 3.4043C19.3985 3.4043 19.613 3.44567 19.8204 3.52842C20.0279 3.61118 20.2179 3.73892 20.3907 3.91166L21.7288 5.26675C21.9015 5.42799 22.0264 5.61269 22.1034 5.82087C22.1804 6.02886 22.2189 6.2439 22.2189 6.466C22.2189 6.67417 22.1798 6.88114 22.1017 7.08691C22.0236 7.29286 21.8993 7.48109 21.7288 7.6516L9.26687 20.1135H5.50967ZM17.796 9.22072L17.096 8.51019L16.4025 7.82722L17.796 9.22072Z" fill="#10167F" fill-opacity="0.6"/>
</g>
</svg>
