<svg width="15" height="18" viewBox="0 0 15 18" fill="none" xmlns="http://www.w3.org/2000/svg">
<path d="M5 7.66953H3.33333V9.36953H5V7.66953ZM8.33333 7.66953H6.66667V9.36953H8.33333V7.66953ZM11.6667 7.66953H10V9.36953H11.6667V7.66953ZM13.3333 1.71953H12.5V0.0195312H10.8333V1.71953H4.16667V0.0195312H2.5V1.71953H1.66667C0.741667 1.71953 0.00833333 2.48453 0.00833333 3.41953L0 15.3195C0 16.2545 0.741667 17.0195 1.66667 17.0195H13.3333C14.25 17.0195 15 16.2545 15 15.3195V3.41953C15 2.48453 14.25 1.71953 13.3333 1.71953ZM13.3333 15.3195H1.66667V5.96953H13.3333V15.3195Z" fill="#10167F"/>
</svg>
