<svg width="20" height="20" viewBox="0 0 20 20" fill="none" xmlns="http://www.w3.org/2000/svg">
<path d="M2.69076 9.1737L0.857422 8.99037C0.949089 8.28759 1.10569 7.60391 1.32721 6.93932C1.54874 6.27474 1.85048 5.64453 2.23242 5.0487L3.79076 6.0112C3.4852 6.48481 3.24457 6.98898 3.06888 7.5237C2.89319 8.05842 2.76714 8.60842 2.69076 9.1737ZM3.51576 16.4154C3.01159 15.9265 2.57617 15.3879 2.20951 14.7997C1.84284 14.2115 1.54492 13.589 1.31576 12.932L3.05742 12.3362C3.24076 12.8709 3.47756 13.3713 3.76784 13.8372C4.05812 14.3032 4.40187 14.7348 4.79909 15.132L3.51576 16.4154ZM6.03659 3.76536L5.07409 2.20703C5.66992 1.82509 6.30013 1.52335 6.96471 1.30182C7.6293 1.0803 8.31298 0.923698 9.01576 0.832031L9.19909 2.66536C8.63381 2.74175 8.08381 2.8678 7.54909 3.04349C7.01437 3.21918 6.5102 3.45981 6.03659 3.76536ZM9.97825 19.1195C9.44353 19.1195 8.91263 19.0775 8.38555 18.9935C7.85846 18.9095 7.35048 18.7681 6.86159 18.5695L7.45742 16.8279C7.86992 16.9654 8.28242 17.0761 8.69492 17.1602C9.10742 17.2442 9.5352 17.2862 9.97825 17.2862V19.1195ZM15.1574 4.7737C14.7602 4.37648 14.3286 4.03273 13.8626 3.74245C13.3967 3.45217 12.8963 3.21536 12.3616 3.03203L12.9574 1.29036C13.6144 1.51953 14.2369 1.81745 14.8251 2.18411C15.4133 2.55078 15.9519 2.9862 16.4408 3.49036L15.1574 4.7737ZM17.1283 18.3862L14.5616 15.8195V18.2029H12.7283V12.7029H18.2283V14.5362H15.8449L18.4116 17.1029L17.1283 18.3862ZM17.3116 9.95286C17.3116 9.50981 17.2696 9.08203 17.1855 8.66953C17.1015 8.25703 16.9908 7.84453 16.8533 7.43203L18.5949 6.8362C18.7935 7.32509 18.9349 7.83307 19.0189 8.36016C19.1029 8.88724 19.1449 9.41814 19.1449 9.95286H17.3116Z" fill="#1C1B1F" fill-opacity="0.4"/>
</svg>
