<svg width="13" height="14" viewBox="0 0 13 14" fill="none" xmlns="http://www.w3.org/2000/svg">
<path fill-rule="evenodd" clip-rule="evenodd" d="M0.246094 13.6152V10.6486L9.58755 0.808856C9.70825 0.681547 9.84526 0.585223 9.99859 0.519884C10.1518 0.454545 10.3112 0.421875 10.4769 0.421875C10.6428 0.421875 10.8033 0.454545 10.9586 0.519884C11.1139 0.585223 11.2562 0.686089 11.3855 0.82248L12.3871 1.89244C12.5164 2.01975 12.6099 2.16559 12.6676 2.32996C12.7252 2.49419 12.754 2.66398 12.754 2.83935C12.754 3.00372 12.7248 3.16714 12.6663 3.32961C12.6078 3.49222 12.5148 3.64085 12.3871 3.77548L3.05859 13.6152H0.246094ZM2.52651 12.2967H1.49609V11.2098L8.40005 3.91414L9.44318 5.01443L2.52651 12.2967Z" fill="#10167F" fill-opacity="0.6"/>
</svg>
