<svg width="27" height="28" viewBox="0 0 27 28" fill="none" xmlns="http://www.w3.org/2000/svg">
<path d="M13.5 17.502L17.2463 20.337C17.5163 20.5395 17.7863 20.5508 18.0562 20.3708C18.3263 20.1908 18.405 19.9433 18.2925 19.6283L16.875 14.937L20.5538 12.3045C20.8238 12.1245 20.9083 11.877 20.8076 11.562C20.7059 11.247 20.4862 11.0895 20.1487 11.0895H15.66L14.1413 6.16203C14.0288 5.84703 13.815 5.68953 13.5 5.68953C13.185 5.68953 12.9712 5.84703 12.8587 6.16203L11.34 11.0895H6.85125C6.51375 11.0895 6.2946 11.247 6.1938 11.562C6.0921 11.877 6.17625 12.1245 6.44625 12.3045L10.125 14.937L8.7075 19.6283C8.595 19.9433 8.67375 20.1908 8.94375 20.3708C9.21375 20.5508 9.48375 20.5395 9.75375 20.337L13.5 17.502ZM13.5 27.0195C11.6325 27.0195 9.8775 26.6649 8.235 25.9557C6.5925 25.2474 5.16375 24.2858 3.94875 23.0708C2.73375 21.8558 1.7721 20.427 1.0638 18.7845C0.3546 17.142 0 15.387 0 13.5195C0 11.652 0.3546 9.89703 1.0638 8.25453C1.7721 6.61203 2.73375 5.18328 3.94875 3.96828C5.16375 2.75328 6.5925 1.79118 8.235 1.08198C9.8775 0.373681 11.6325 0.0195312 13.5 0.0195312C15.3675 0.0195312 17.1225 0.373681 18.765 1.08198C20.4075 1.79118 21.8363 2.75328 23.0513 3.96828C24.2663 5.18328 25.2279 6.61203 25.9362 8.25453C26.6454 9.89703 27 11.652 27 13.5195C27 15.387 26.6454 17.142 25.9362 18.7845C25.2279 20.427 24.2663 21.8558 23.0513 23.0708C21.8363 24.2858 20.4075 25.2474 18.765 25.9557C17.1225 26.6649 15.3675 27.0195 13.5 27.0195Z" fill="#10167F"/>
</svg>
