<svg width="15" height="16" viewBox="0 0 15 16" fill="none" xmlns="http://www.w3.org/2000/svg">
<path d="M7.5 9.73203L9.58125 11.307C9.73125 11.4195 9.88125 11.4258 10.0312 11.3258C10.1812 11.2258 10.225 11.0883 10.1625 10.9133L9.375 8.30703L11.4188 6.84453C11.5688 6.74453 11.6158 6.60703 11.5597 6.43203C11.5033 6.25703 11.3812 6.16953 11.1937 6.16953H8.7L7.85625 3.43203C7.79375 3.25703 7.675 3.16953 7.5 3.16953C7.325 3.16953 7.20625 3.25703 7.14375 3.43203L6.3 6.16953H3.80625C3.61875 6.16953 3.497 6.25703 3.441 6.43203C3.3845 6.60703 3.43125 6.74453 3.58125 6.84453L5.625 8.30703L4.8375 10.9133C4.775 11.0883 4.81875 11.2258 4.96875 11.3258C5.11875 11.4258 5.26875 11.4195 5.41875 11.307L7.5 9.73203ZM7.5 15.0195C6.4625 15.0195 5.4875 14.8225 4.575 14.4285C3.6625 14.035 2.86875 13.5008 2.19375 12.8258C1.51875 12.1508 0.9845 11.357 0.591 10.4445C0.197 9.53203 0 8.55703 0 7.51953C0 6.48203 0.197 5.50703 0.591 4.59453C0.9845 3.68203 1.51875 2.88828 2.19375 2.21328C2.86875 1.53828 3.6625 1.00378 4.575 0.609781C5.4875 0.216281 6.4625 0.0195312 7.5 0.0195312C8.5375 0.0195312 9.5125 0.216281 10.425 0.609781C11.3375 1.00378 12.1313 1.53828 12.8063 2.21328C13.4813 2.88828 14.0155 3.68203 14.409 4.59453C14.803 5.50703 15 6.48203 15 7.51953C15 8.55703 14.803 9.53203 14.409 10.4445C14.0155 11.357 13.4813 12.1508 12.8063 12.8258C12.1313 13.5008 11.3375 14.035 10.425 14.4285C9.5125 14.8225 8.5375 15.0195 7.5 15.0195Z" fill="#10167F"/>
</svg>
