<svg width="19" height="14" viewBox="0 0 19 14" fill="none" xmlns="http://www.w3.org/2000/svg">
<path d="M9.67578 0.925781C5.61328 0.925781 2.14391 3.45266 0.738281 7.01953C2.14391 10.5864 5.61328 13.1133 9.67578 13.1133C13.7383 13.1133 17.2077 10.5864 18.6133 7.01953C17.2077 3.45266 13.7383 0.925781 9.67578 0.925781ZM9.67578 11.082C7.43328 11.082 5.61328 9.26203 5.61328 7.01953C5.61328 4.77703 7.43328 2.95703 9.67578 2.95703C11.9183 2.95703 13.7383 4.77703 13.7383 7.01953C13.7383 9.26203 11.9183 11.082 9.67578 11.082ZM9.67578 4.58203C8.32703 4.58203 7.23828 5.67078 7.23828 7.01953C7.23828 8.36828 8.32703 9.45703 9.67578 9.45703C11.0245 9.45703 12.1133 8.36828 12.1133 7.01953C12.1133 5.67078 11.0245 4.58203 9.67578 4.58203Z" fill="#10167F"/>
</svg>
