<svg width="19" height="20" viewBox="0 0 19 20" fill="none" xmlns="http://www.w3.org/2000/svg">
<path d="M9.5 19.5195C8.1975 19.5195 6.96833 19.2699 5.8125 18.7705C4.65667 18.2712 3.64867 17.5914 2.7885 16.731C1.92817 15.8709 1.24833 14.8629 0.749 13.707C0.249667 12.5512 0 11.322 0 10.0195C0 8.7067 0.249667 7.47495 0.749 6.32428C1.24833 5.17361 1.92817 4.1682 2.7885 3.30803C3.64867 2.4477 4.65667 1.76787 5.8125 1.26853C6.96833 0.769198 8.1975 0.519531 9.5 0.519531C10.8128 0.519531 12.0446 0.769198 13.1953 1.26853C14.3459 1.76787 15.3513 2.4477 16.2115 3.30803C17.0718 4.1682 17.7517 5.17361 18.251 6.32428C18.7503 7.47495 19 8.7067 19 10.0195C19 11.322 18.7503 12.5512 18.251 13.707C17.7517 14.8629 17.0718 15.8709 16.2115 16.731C15.3513 17.5914 14.3459 18.2712 13.1953 18.7705C12.0446 19.2699 10.8128 19.5195 9.5 19.5195ZM9.5 17.9983C10.0103 17.3214 10.4398 16.6388 10.7885 15.9503C11.1372 15.2618 11.4212 14.5092 11.6405 13.6925H7.3595C7.59167 14.5349 7.87892 15.3003 8.22125 15.9888C8.56342 16.6773 8.98967 17.3471 9.5 17.9983ZM7.5635 17.7233C7.18017 17.1733 6.83592 16.548 6.53075 15.8475C6.22558 15.1469 5.98842 14.4285 5.81925 13.6925H2.427C2.95517 14.731 3.6635 15.6035 4.552 16.31C5.4405 17.0164 6.44433 17.4874 7.5635 17.7233ZM11.4365 17.7233C12.5557 17.4874 13.5595 17.0164 14.448 16.31C15.3365 15.6035 16.0448 14.731 16.573 13.6925H13.1807C12.9794 14.4349 12.7262 15.1564 12.421 15.857C12.116 16.5577 11.7878 17.1798 11.4365 17.7233ZM1.798 12.1925H5.5155C5.45267 11.8209 5.40708 11.4564 5.37875 11.0993C5.35058 10.7423 5.3365 10.3824 5.3365 10.0195C5.3365 9.6567 5.35058 9.29678 5.37875 8.93978C5.40708 8.58261 5.45267 8.2182 5.5155 7.84653H1.798C1.70183 8.1862 1.62817 8.53936 1.577 8.90603C1.52567 9.2727 1.5 9.64386 1.5 10.0195C1.5 10.3952 1.52567 10.7664 1.577 11.133C1.62817 11.4997 1.70183 11.8529 1.798 12.1925ZM7.01525 12.1925H11.9848C12.0474 11.8209 12.0929 11.4597 12.1212 11.109C12.1494 10.7584 12.1635 10.3952 12.1635 10.0195C12.1635 9.64386 12.1494 9.2807 12.1212 8.93003C12.0929 8.57936 12.0474 8.2182 11.9848 7.84653H7.01525C6.95258 8.2182 6.90708 8.57936 6.87875 8.93003C6.85058 9.2807 6.8365 9.64386 6.8365 10.0195C6.8365 10.3952 6.85058 10.7584 6.87875 11.109C6.90708 11.4597 6.95258 11.8209 7.01525 12.1925ZM13.4845 12.1925H17.202C17.2982 11.8529 17.3718 11.4997 17.423 11.133C17.4743 10.7664 17.5 10.3952 17.5 10.0195C17.5 9.64386 17.4743 9.2727 17.423 8.90603C17.3718 8.53936 17.2982 8.1862 17.202 7.84653H13.4845C13.5473 8.2182 13.5929 8.58261 13.6212 8.93978C13.6494 9.29678 13.6635 9.6567 13.6635 10.0195C13.6635 10.3824 13.6494 10.7423 13.6212 11.0993C13.5929 11.4564 13.5473 11.8209 13.4845 12.1925ZM13.1807 6.34653H16.573C16.0385 5.2952 15.335 4.4227 14.4625 3.72903C13.59 3.03553 12.5813 2.5612 11.4365 2.30603C11.8198 2.88803 12.1608 3.52461 12.4595 4.21578C12.7583 4.90678 12.9987 5.61703 13.1807 6.34653ZM7.3595 6.34653H11.6405C11.4083 5.51053 11.1163 4.74028 10.7645 4.03578C10.4125 3.33128 9.991 2.66628 9.5 2.04078C9.009 2.66628 8.5875 3.33128 8.2355 4.03578C7.88367 4.74028 7.59167 5.51053 7.3595 6.34653ZM2.427 6.34653H5.81925C6.00125 5.61703 6.24167 4.90678 6.5405 4.21578C6.83917 3.52461 7.18017 2.88803 7.5635 2.30603C6.41217 2.5612 5.40192 3.0372 4.53275 3.73403C3.66342 4.4307 2.9615 5.30153 2.427 6.34653Z" fill="#10167F"/>
</svg>
