<svg width="2661" height="294" viewBox="0 0 2661 294" fill="none" xmlns="http://www.w3.org/2000/svg">
<g clip-path="url(#clip0_3683_7914)">
<rect width="2661" height="294" fill="#030230"/>
<g opacity="0.35">
<path fill-rule="evenodd" clip-rule="evenodd" d="M440.217 240.127C470.95 169.415 441.684 87.751 374.847 52.0462C369.001 48.9234 361.894 51.7485 359.253 57.8267L251.694 305.303C249.052 311.381 251.835 318.504 258.106 320.648C329.81 345.156 409.484 310.84 440.217 240.127Z" fill="#D85747"/>
<rect x="-10.418" y="41.3672" width="178.348" height="50.9067" rx="12" transform="rotate(14.533 -10.418 41.3672)" fill="#E28E83"/>
<rect x="246.91" y="-286.613" width="23.5217" height="555.886" rx="11.7609" transform="rotate(-11.8849 246.91 -286.613)" fill="#FBA541"/>
<rect x="687.5" y="246.852" width="23.5217" height="555.886" rx="11.7609" transform="rotate(102.029 687.5 246.852)" fill="#0B57B3"/>
<path d="M159.598 250.735C164.014 234.653 164.337 217.721 160.537 201.482L158.915 194.545C156.348 183.574 151.946 173.117 145.895 163.614L145.081 162.334C136.823 149.366 125.654 138.503 112.462 130.609C101.756 124.203 89.8986 119.876 77.5849 117.867C56.2765 114.393 34.354 117.943 15.25 128.001L14.6825 128.3C3.73376 134.064 -6.05013 141.81 -14.1722 151.144L-15.2178 152.346C-21.2646 159.295 -26.3222 167.046 -30.2471 175.38L-39.2343 194.463C-43.9146 204.4 -45.7884 215.429 -44.653 226.355C-43.5055 237.397 -39.3289 247.907 -32.5845 256.724L-19.7511 273.503C-15.6614 278.85 -11.0422 283.77 -5.96381 288.189L11.8214 303.664C22.0587 312.572 34.1063 319.153 47.1333 322.954L53.5645 324.831C67.5723 328.918 82.4894 328.667 96.3515 324.11C105.632 321.06 114.197 316.158 121.529 309.703L127.95 304.049C142.587 291.162 153.136 274.276 158.299 255.47L159.598 250.735Z" fill="#54ABDF"/>
<path d="M209.588 328.699C219.34 327.536 228.736 323.961 236.772 318.315L238.338 317.214C243.182 313.81 247.401 309.592 250.806 304.747L251.133 304.281C255.694 297.791 258.61 290.29 259.629 282.423C260.447 276.104 260.025 269.686 258.384 263.529L258.265 263.08C255.417 252.392 249.191 242.91 240.515 236.047L239.616 235.336C234.505 231.293 228.712 228.195 222.512 226.187L221.877 225.981C216.955 224.388 211.844 223.454 206.677 223.206L195.442 222.665C189.818 222.394 184.223 223.636 179.242 226.263C173.991 229.033 169.63 233.231 166.662 238.374L162.126 246.234C159.92 250.057 158.123 254.101 156.763 258.3L153.571 268.16C151.366 274.968 150.723 282.186 151.689 289.277L152.066 292.045C153.124 299.818 156.52 307.085 161.803 312.884C165.214 316.627 169.326 319.665 173.907 321.824L177.499 323.517C187.465 328.215 198.647 330.003 209.588 328.699Z" fill="#FBA541"/>
</g>
</g>
<defs>
<clipPath id="clip0_3683_7914">
<rect width="2661" height="294" fill="white"/>
</clipPath>
</defs>
</svg>
