<svg width="25" height="25" viewBox="0 0 25 25" fill="none" xmlns="http://www.w3.org/2000/svg">
<mask id="mask0_3386_6062" style="mask-type:alpha" maskUnits="userSpaceOnUse" x="0" y="0" width="25" height="25">
<rect x="0.5" y="0.0195312" width="24" height="24" fill="#D9D9D9"/>
</mask>
<g mask="url(#mask0_3386_6062)">
<path d="M12.5002 21.5178C11.3207 21.5178 10.2156 21.2947 9.18492 20.8485C8.15409 20.4023 7.25534 19.7959 6.48867 19.0293C5.72201 18.2626 5.11559 17.3638 4.66942 16.333C4.22326 15.3023 4.00017 14.1973 4.00017 13.0178C4.00017 11.8383 4.22326 10.7332 4.66942 9.7025C5.11559 8.67167 5.72201 7.77292 6.48867 7.00625C7.25534 6.23958 8.15409 5.63317 9.18492 5.187C10.2156 4.74083 11.3207 4.51775 12.5002 4.51775C13.6797 4.51775 14.7848 4.74083 15.8154 5.187C16.8463 5.63317 17.745 6.23958 18.5117 7.00625C19.2783 7.77292 19.8848 8.67167 20.3309 9.7025C20.7771 10.7332 21.0002 11.8383 21.0002 13.0178C21.0002 14.1973 20.7771 15.3023 20.3309 16.333C19.8848 17.3638 19.2783 18.2626 18.5117 19.0293C17.745 19.7959 16.8463 20.4023 15.8154 20.8485C14.7848 21.2947 13.6797 21.5178 12.5002 21.5178ZM15.4732 17.0448L16.5272 15.9908L13.2502 12.714V8.01775H11.7502V13.3215L15.4732 17.0448ZM6.25392 2.90625L7.30792 3.96L3.44242 7.8255L2.38867 6.7715L6.25392 2.90625ZM18.7464 2.90625L22.6117 6.7715L21.5579 7.8255L17.6924 3.96L18.7464 2.90625ZM12.5002 20.0178C14.4438 20.0178 16.0964 19.337 17.4579 17.9755C18.8194 16.614 19.5002 14.9614 19.5002 13.0178C19.5002 11.0741 18.8194 9.4215 17.4579 8.06C16.0964 6.6985 14.4438 6.01775 12.5002 6.01775C10.5565 6.01775 8.90392 6.6985 7.54242 8.06C6.18092 9.4215 5.50017 11.0741 5.50017 13.0178C5.50017 14.9614 6.18092 16.614 7.54242 17.9755C8.90392 19.337 10.5565 20.0178 12.5002 20.0178Z" fill="#10167F"/>
</g>
</svg>
