<svg width="150" height="41" viewBox="0 0 150 41" fill="none" xmlns="http://www.w3.org/2000/svg">
<path d="M20.0076 0C8.96701 0 0 8.98994 0 20.0321C0 22.5724 0.473828 24.995 1.33996 27.2246C1.38581 27.3499 1.47752 27.5868 1.76793 27.4615C2.06853 27.3127 3.87721 26.4746 4.19309 26.336C4.51917 26.1949 4.37651 25.9483 4.33066 25.8128C3.65813 24.0066 3.2964 22.0609 3.2964 20.0321C3.2964 10.8052 10.7859 3.30862 20.0076 3.30862C29.2039 3.30862 36.7036 10.8052 36.7036 20.0321C36.7036 22.364 36.2196 24.5793 35.3586 26.6025C35.2974 26.7258 35.2414 26.9708 35.5471 27.1043C35.8324 27.2353 37.5952 28.0102 37.8398 28.1055C38.0741 28.2211 38.2576 28.1951 38.4206 27.8436C39.4396 25.4322 40 22.79 40 20.0321C40 8.98994 31.0279 0 20.0076 0ZM20.0076 4.61597C11.5043 4.61597 4.5956 11.5348 4.5956 20.0321C4.5956 21.9019 4.93695 23.6963 5.55343 25.3608C5.58909 25.4633 5.66552 25.6665 5.93046 25.5458C6.17501 25.4169 7.03604 25.0287 7.26531 24.913C7.49968 24.8152 7.44363 24.6175 7.40797 24.5278C6.90358 23.1206 6.62845 21.6166 6.62845 20.0321C6.62845 12.6465 12.6251 6.65189 20.0076 6.65189C27.3647 6.65189 33.3665 12.6465 33.3665 20.0321C33.3665 21.9223 32.9741 23.7167 32.2609 25.3471C32.2252 25.4317 32.159 25.6355 32.3882 25.72C32.592 25.8128 33.555 26.2412 33.7282 26.3212C33.9167 26.3982 34.039 26.364 34.1307 26.1429C34.951 24.2736 35.3993 22.202 35.3993 20.0321C35.3993 11.5348 28.4957 4.61597 20.0076 4.61597ZM20.0076 7.98217C13.3537 7.98217 7.96841 13.3812 7.96841 20.0321C7.96841 21.396 8.19768 22.6972 8.61037 23.9221C8.6715 24.107 8.76831 24.2283 8.98739 24.1279C9.20138 24.0255 9.70067 23.8038 9.92485 23.6958C10.1796 23.5654 10.1439 23.4594 10.0675 23.2511C9.73124 22.2321 9.56312 21.1514 9.56312 20.0321C9.56312 14.2723 14.2504 9.58451 20.0076 9.58451C25.7547 9.58451 30.4318 14.2723 30.4318 20.0321C30.4318 21.504 30.121 22.9184 29.5708 24.1844C29.5198 24.2741 29.5147 24.4534 29.6676 24.5329C29.8357 24.6048 30.4675 24.8896 30.656 24.9619C30.8445 25.0363 30.9566 24.993 31.0585 24.7953C31.6902 23.3259 32.0367 21.7216 32.0367 20.0321C32.0367 13.3812 26.6463 7.98217 20.0076 7.98217Z" fill="#10167F"/>
<path d="M20.013 11.3958C18.8157 11.3958 17.8732 12.3486 17.8732 13.5449C17.8732 14.7294 18.8157 15.6847 20.013 15.6847C21.1899 15.6847 22.158 14.7294 22.158 13.5449C22.158 12.3486 21.1899 11.3958 20.013 11.3958ZM14.5207 13.1123C14.3322 13.1123 14.1386 13.1867 13.996 13.337L13.1808 14.143C12.8853 14.4309 12.8853 14.9241 13.1808 15.2216L17.6133 19.646C18.0311 20.0903 18.4438 20.8565 18.4642 21.4521V26.1537C18.4642 26.5725 18.8004 26.9113 19.2233 26.9113H20.7976C21.2154 26.9113 21.5466 26.5725 21.5466 26.1537V21.4521C21.5721 20.8565 21.9949 20.0903 22.4076 19.646L26.8351 15.2216C27.1357 14.9241 27.1357 14.4309 26.8351 14.143L26.025 13.337C25.7346 13.0364 25.2455 13.0364 24.9551 13.337L20.9607 17.3406C20.6855 17.5999 20.5021 17.7614 20.013 17.7614C19.5137 17.7614 19.3201 17.5999 19.0603 17.3406L15.0608 13.337C14.913 13.1867 14.7143 13.1123 14.5207 13.1123Z" fill="#10167F"/>
<path d="M34.7573 28.5746C34.0093 28.8519 32.6095 30.2334 31.9805 30.7958L31.8046 30.8219C32.0289 30.5748 32.9936 29.35 33.2463 28.9315C34.0093 27.6654 32.5694 26.4741 30.9893 27.3808C30.3855 27.7248 29.3814 28.78 28.8952 29.1651L28.7433 29.2034C28.9599 28.9858 29.8553 27.8144 30.0887 27.4343C30.785 26.4097 29.3349 25.4367 28.0858 26.1943C27.2013 26.7254 26.4778 27.4502 25.7363 28.0254L25.607 28.0581C25.8054 27.8657 26.3026 27.2778 26.4914 27.0727C27.2298 26.243 26.1727 25.2877 25.0581 25.8706C23.9887 26.4148 22.4519 27.9508 20.7683 29.0292C21.5487 29.4505 22.9226 29.5149 25.0995 30.4443C27.2834 31.3762 27.9895 33.5461 26.5632 35.2592C25.2469 36.8465 23.242 36.3123 21.5157 35.7724C19.5128 35.146 18.8022 34.499 16.3913 33.6618C14.8169 33.1125 14.1711 33.12 14.2008 32.6705C14.2266 32.1546 15.5889 32.4626 16.8626 32.9248C20.3998 34.2085 25.0944 37.1184 26.2469 33.98C27.1585 31.5075 23.084 30.4342 21.5233 30.1387C19.3523 29.72 17.8549 28.1302 15.9734 27.1161C13.13 25.5831 10.9434 25.5447 9.32103 25.837C7.57476 26.1476 5.08626 27.5733 3.58062 28.4794C2.5326 29.0987 2.6108 30.0458 3.63169 31.4967C7.26068 36.6507 13.2366 40.0204 20.0031 40.0204C27.1777 40.0204 33.476 36.2095 37.0017 30.5368C37.7866 29.2708 36.5569 27.9356 34.757 28.575" fill="#10167F"/>
<path d="M57.088 30.2037C55.84 30.2037 54.848 29.8357 54.112 29.0997C53.392 28.3477 53.032 27.3477 53.032 26.0997C53.032 25.7157 53.048 25.4277 53.08 25.2357L54.52 13.4997C54.536 13.4197 54.568 13.3557 54.616 13.3077C54.68 13.2437 54.752 13.2117 54.832 13.2117H57.544C57.72 13.2117 57.808 13.3077 57.808 13.4997L56.32 25.5717C56.304 25.6517 56.296 25.7637 56.296 25.9077C56.296 26.3237 56.4 26.6597 56.608 26.9157C56.816 27.1717 57.096 27.2997 57.448 27.2997C57.848 27.2997 58.184 27.1397 58.456 26.8197C58.744 26.4997 58.92 26.0837 58.984 25.5717L60.472 13.4997C60.488 13.4197 60.52 13.3557 60.568 13.3077C60.632 13.2437 60.704 13.2117 60.784 13.2117H63.52C63.6 13.2117 63.664 13.2437 63.712 13.3077C63.76 13.3557 63.776 13.4197 63.76 13.4997L62.32 25.2357C62.144 26.7397 61.576 27.9477 60.616 28.8597C59.656 29.7557 58.48 30.2037 57.088 30.2037ZM71.7756 13.4997C71.7916 13.4197 71.8236 13.3557 71.8716 13.3077C71.9356 13.2437 72.0076 13.2117 72.0876 13.2117H74.7996C74.8796 13.2117 74.9436 13.2437 74.9916 13.3077C75.0396 13.3557 75.0556 13.4197 75.0396 13.4997L73.0476 29.7237C73.0316 29.8037 72.9916 29.8757 72.9276 29.9397C72.8796 29.9877 72.8156 30.0117 72.7356 30.0117H69.6636C69.5196 30.0117 69.4236 29.9317 69.3756 29.7717L67.6476 20.4837C67.6316 20.4357 67.5996 20.4197 67.5516 20.4357C67.5196 20.4357 67.5036 20.4597 67.5036 20.5077L66.3996 29.7237C66.3836 29.8037 66.3436 29.8757 66.2796 29.9397C66.2156 29.9877 66.1436 30.0117 66.0636 30.0117H63.3756C63.2956 30.0117 63.2316 29.9877 63.1836 29.9397C63.1356 29.8757 63.1196 29.8037 63.1356 29.7237L65.1276 13.4997C65.1436 13.4197 65.1756 13.3557 65.2236 13.3077C65.2876 13.2437 65.3596 13.2117 65.4396 13.2117H68.4876C68.6316 13.2117 68.7196 13.2917 68.7516 13.4517L70.5276 22.7397C70.5436 22.7877 70.5676 22.8117 70.5996 22.8117C70.6476 22.7957 70.6716 22.7637 70.6716 22.7157L71.7756 13.4997ZM74.8722 30.0117C74.7922 30.0117 74.7282 29.9877 74.6802 29.9397C74.6322 29.8757 74.6162 29.8037 74.6322 29.7237L76.6242 13.4997C76.6402 13.4197 76.6722 13.3557 76.7202 13.3077C76.7842 13.2437 76.8562 13.2117 76.9362 13.2117H79.6482C79.8242 13.2117 79.9122 13.3077 79.9122 13.4997L77.9202 29.7237C77.9042 29.8037 77.8642 29.8757 77.8002 29.9397C77.7362 29.9877 77.6642 30.0117 77.5842 30.0117H74.8722ZM90.5599 13.2117C90.6399 13.2117 90.7039 13.2437 90.7519 13.3077C90.7999 13.3557 90.8159 13.4197 90.7999 13.4997L90.5119 15.8277C90.4959 15.9077 90.4559 15.9797 90.3919 16.0437C90.3439 16.0917 90.2799 16.1157 90.1999 16.1157H87.2719C87.2399 16.1157 87.2079 16.1317 87.1759 16.1637C87.1599 16.1797 87.1519 16.2037 87.1519 16.2357L85.4959 29.7237C85.4799 29.8037 85.4399 29.8757 85.3759 29.9397C85.3279 29.9877 85.2639 30.0117 85.1839 30.0117H82.4479C82.3679 30.0117 82.3039 29.9877 82.2559 29.9397C82.2079 29.8757 82.1919 29.8037 82.2079 29.7237L83.8639 16.2357C83.8959 16.1557 83.8639 16.1157 83.7679 16.1157H80.9839C80.8079 16.1157 80.7199 16.0197 80.7199 15.8277L81.0079 13.4997C81.0239 13.4197 81.0559 13.3557 81.1039 13.3077C81.1679 13.2437 81.2399 13.2117 81.3199 13.2117H90.5599ZM100.162 15.8277C100.146 15.9077 100.106 15.9797 100.042 16.0437C99.9944 16.0917 99.9304 16.1157 99.8504 16.1157H94.9784C94.8984 16.1157 94.8584 16.1557 94.8584 16.2357L94.3784 20.0277C94.3784 20.1077 94.4104 20.1477 94.4744 20.1477H97.2824C97.3624 20.1477 97.4264 20.1797 97.4744 20.2437C97.5224 20.2917 97.5384 20.3557 97.5224 20.4357L97.2344 22.7637C97.2184 22.8437 97.1784 22.9157 97.1144 22.9797C97.0664 23.0277 97.0024 23.0517 96.9224 23.0517H94.1384C94.0424 23.0517 93.9944 23.0917 93.9944 23.1717L93.5384 26.9877C93.5064 27.0677 93.5384 27.1077 93.6344 27.1077H98.4824C98.5624 27.1077 98.6264 27.1397 98.6744 27.2037C98.7384 27.2517 98.7624 27.3157 98.7464 27.3957L98.4584 29.7237C98.4424 29.8037 98.4024 29.8757 98.3384 29.9397C98.2904 29.9877 98.2264 30.0117 98.1464 30.0117H90.1544C90.0744 30.0117 90.0104 29.9877 89.9624 29.9397C89.9144 29.8757 89.8984 29.8037 89.9144 29.7237L91.9064 13.4997C91.9224 13.4197 91.9544 13.3557 92.0024 13.3077C92.0664 13.2437 92.1384 13.2117 92.2184 13.2117H100.21C100.29 13.2117 100.354 13.2437 100.402 13.3077C100.45 13.3557 100.466 13.4197 100.45 13.4997L100.162 15.8277ZM99.8697 30.0117C99.7897 30.0117 99.7257 29.9877 99.6777 29.9397C99.6297 29.8757 99.6137 29.8037 99.6297 29.7237L101.622 13.4997C101.638 13.4197 101.67 13.3557 101.718 13.3077C101.782 13.2437 101.854 13.2117 101.934 13.2117H106.134C107.43 13.2117 108.446 13.5717 109.182 14.2917C109.934 14.9957 110.31 15.9477 110.31 17.1477C110.31 17.3077 110.294 17.5477 110.262 17.8677L109.326 25.3557C109.15 26.7637 108.582 27.8917 107.622 28.7397C106.678 29.5877 105.494 30.0117 104.07 30.0117H99.8697ZM103.254 26.9877C103.222 27.0677 103.254 27.1077 103.35 27.1077L104.406 27.0837C104.822 27.0677 105.182 26.8837 105.486 26.5317C105.806 26.1797 106.006 25.7157 106.086 25.1397L106.95 18.0837C106.966 17.9877 106.974 17.8517 106.974 17.6757C106.974 17.1957 106.862 16.8197 106.638 16.5477C106.43 16.2597 106.126 16.1157 105.726 16.1157H104.694C104.614 16.1157 104.574 16.1557 104.574 16.2357L103.254 26.9877ZM117.3 30.0117C117.108 30.0117 117.012 29.9237 117.012 29.7477L115.86 13.5237V13.4757C115.86 13.2997 115.956 13.2117 116.148 13.2117H118.98C119.156 13.2117 119.244 13.2997 119.244 13.4757L119.508 22.1157C119.524 22.1797 119.548 22.2117 119.58 22.2117C119.612 22.2117 119.636 22.1797 119.652 22.1157L121.98 13.4757C122.028 13.2997 122.14 13.2117 122.316 13.2117H124.668C124.844 13.2117 124.932 13.2997 124.932 13.4757L125.244 22.1157C125.244 22.1797 125.26 22.2117 125.292 22.2117C125.34 22.2117 125.372 22.1797 125.388 22.1157L127.62 13.4757C127.668 13.2997 127.78 13.2117 127.956 13.2117H130.716C130.908 13.2117 130.98 13.3157 130.932 13.5237L125.988 29.7477C125.94 29.9237 125.828 30.0117 125.652 30.0117H123.132C122.956 30.0117 122.868 29.9237 122.868 29.7477L122.58 20.8677C122.58 20.8037 122.564 20.7717 122.532 20.7717C122.5 20.7717 122.468 20.8037 122.436 20.8677L120.108 29.7477C120.06 29.9237 119.948 30.0117 119.772 30.0117H117.3ZM134.958 30.0117C134.782 30.0117 134.694 29.9237 134.694 29.7477L134.598 27.4437C134.614 27.4117 134.606 27.3877 134.574 27.3717C134.542 27.3397 134.51 27.3237 134.478 27.3237H131.526C131.43 27.3237 131.382 27.3637 131.382 27.4437L130.71 29.7477C130.662 29.9237 130.55 30.0117 130.374 30.0117H127.662C127.47 30.0117 127.406 29.9077 127.47 29.6997L132.87 13.4757C132.918 13.2997 133.03 13.2117 133.206 13.2117H136.35C136.51 13.2117 136.606 13.2997 136.638 13.4757L138.03 29.6997V29.7717C138.03 29.9317 137.942 30.0117 137.766 30.0117H134.958ZM132.198 24.5877C132.166 24.6677 132.19 24.7077 132.27 24.7077H134.358C134.438 24.7077 134.478 24.6677 134.478 24.5877L134.19 18.0357C134.174 17.9877 134.15 17.9637 134.118 17.9637C134.086 17.9637 134.062 17.9877 134.046 18.0357L132.198 24.5877ZM140.649 29.9877C140.569 29.9877 140.505 29.9637 140.457 29.9157C140.409 29.8517 140.393 29.7797 140.409 29.6997L141.177 23.4597C141.177 23.4437 141.177 23.4277 141.177 23.4117C141.193 23.3797 141.193 23.3477 141.177 23.3157L139.113 13.5477V13.4757C139.113 13.3957 139.137 13.3317 139.185 13.2837C139.233 13.2357 139.297 13.2117 139.377 13.2117H142.257C142.433 13.2117 142.529 13.2917 142.545 13.4517L143.289 19.1877C143.289 19.2357 143.305 19.2597 143.337 19.2597C143.385 19.2597 143.417 19.2357 143.433 19.1877L145.569 13.4517C145.633 13.2917 145.753 13.2117 145.929 13.2117H148.785C148.881 13.2117 148.945 13.2437 148.977 13.3077C149.025 13.3557 149.025 13.4357 148.977 13.5477L144.513 23.3157C144.481 23.3637 144.465 23.4117 144.465 23.4597L143.697 29.6997C143.681 29.7797 143.641 29.8517 143.577 29.9157C143.529 29.9637 143.465 29.9877 143.385 29.9877H140.649Z" fill="#10167F"/>
</svg>
