<svg width="108" height="104" viewBox="0 0 108 104" fill="none" xmlns="http://www.w3.org/2000/svg">
<path d="M11.8964 103.079C8.62486 103.079 5.82426 101.957 3.49456 99.7142C1.16485 97.4713 0 94.775 0 91.6254V11.4532C0 8.30355 1.16485 5.60728 3.49456 3.36437C5.82426 1.12146 8.62486 0 11.8964 0H59.4818V11.4532H11.8964V91.6254H95.1709V45.8127H107.067V91.6254C107.067 94.775 105.902 97.4713 103.573 99.7142C101.243 101.957 98.4424 103.079 95.1709 103.079H11.8964ZM17.8445 80.1722H89.2227L66.9171 51.5393L49.0725 74.4456L35.6891 57.2659L17.8445 80.1722ZM83.2746 34.3595V22.9063H71.3782V11.4532H83.2746V0H95.1709V11.4532H107.067V22.9063H95.1709V34.3595H83.2746Z" fill="#10167F"/>
</svg>
