<svg width="16" height="18" viewBox="0 0 16 18" fill="none" xmlns="http://www.w3.org/2000/svg">
<path d="M5.5 8.16953H3.83333V9.86953H5.5V8.16953ZM8.83333 8.16953H7.16667V9.86953H8.83333V8.16953ZM12.1667 8.16953H10.5V9.86953H12.1667V8.16953ZM13.8333 2.21953H13V0.519531H11.3333V2.21953H4.66667V0.519531H3V2.21953H2.16667C1.24167 2.21953 0.508333 2.98453 0.508333 3.91953L0.5 15.8195C0.5 16.7545 1.24167 17.5195 2.16667 17.5195H13.8333C14.75 17.5195 15.5 16.7545 15.5 15.8195V3.91953C15.5 2.98453 14.75 2.21953 13.8333 2.21953ZM13.8333 15.8195H2.16667V6.46953H13.8333V15.8195Z" fill="#10167F"/>
</svg>
