<svg width="15" height="15" viewBox="0 0 15 15" fill="none" xmlns="http://www.w3.org/2000/svg">
<g clip-path="url(#clip0_4476_2728)">
<path d="M7.63802 4.6849C6.99635 4.6849 6.47135 4.1599 6.47135 3.51823C6.47135 2.87656 6.99635 2.35156 7.63802 2.35156C8.27969 2.35156 8.80469 2.87656 8.80469 3.51823C8.80469 4.1599 8.27969 4.6849 7.63802 4.6849ZM7.63802 5.85156C8.27969 5.85156 8.80469 6.37656 8.80469 7.01823C8.80469 7.6599 8.27969 8.1849 7.63802 8.1849C6.99635 8.1849 6.47135 7.6599 6.47135 7.01823C6.47135 6.37656 6.99635 5.85156 7.63802 5.85156ZM7.63802 9.35156C8.27969 9.35156 8.80469 9.87656 8.80469 10.5182C8.80469 11.1599 8.27969 11.6849 7.63802 11.6849C6.99635 11.6849 6.47135 11.1599 6.47135 10.5182C6.47135 9.87656 6.99635 9.35156 7.63802 9.35156Z" fill="#10167F" fill-opacity="0.5"/>
</g>
<defs>
<clipPath id="clip0_4476_2728">
<rect width="14" height="14" fill="white" transform="matrix(-1 0 0 1 14.6387 0.0195312)"/>
</clipPath>
</defs>
</svg>
