<svg width="16" height="14" viewBox="0 0 16 14" fill="none" xmlns="http://www.w3.org/2000/svg">
<path d="M8.854 0.19043C8.94619 0.199482 9.03667 0.222236 9.12256 0.257812C9.23685 0.305154 9.34072 0.374461 9.42822 0.461914L14.9702 6.00391L15.0327 6.07227C15.0914 6.14369 15.1388 6.22388 15.1743 6.30957L15.2056 6.39648C15.2325 6.48501 15.2465 6.57707 15.2466 6.66992C15.2466 6.76298 15.2326 6.85563 15.2056 6.94434L15.1743 7.03125C15.1387 7.11694 15.0914 7.19715 15.0327 7.26855L14.9702 7.33691L9.42822 12.8789C9.25155 13.0554 9.01195 13.1542 8.76221 13.1543C8.54353 13.1543 8.33226 13.0787 8.16455 12.9414L8.09521 12.8789C7.91843 12.7021 7.81885 12.4619 7.81885 12.2119C7.81885 11.9619 7.91844 11.7217 8.09521 11.5449L12.0298 7.6123H1.63721C1.41874 7.6123 1.20807 7.53566 1.04053 7.39844L0.971191 7.33594C0.794602 7.15934 0.694824 6.91966 0.694824 6.66992C0.694916 6.42037 0.794771 6.18138 0.971191 6.00488L1.04053 5.94141C1.20801 5.80436 1.41889 5.72852 1.63721 5.72852H12.0308L8.09521 1.79492C8.02963 1.7293 7.97376 1.65476 7.93018 1.57324L7.89111 1.48926C7.84379 1.37499 7.81889 1.25259 7.81885 1.12891C7.81885 1.00511 7.84374 0.881948 7.89111 0.767578L7.93018 0.68457C7.97383 0.602795 8.02943 0.5277 8.09521 0.461914L8.16357 0.399414C8.23502 0.340791 8.3152 0.293333 8.40088 0.257812L8.48877 0.226562C8.57718 0.199793 8.66949 0.185547 8.76221 0.185547L8.854 0.19043Z" fill="#10167F" stroke="#10167F" stroke-width="0.3"/>
</svg>
