<svg width="32" height="34" viewBox="0 0 32 34" fill="none" xmlns="http://www.w3.org/2000/svg">
<path d="M12.25 23.7695C11.8375 23.7695 11.4845 23.6228 11.191 23.3293C10.897 23.0353 10.75 22.682 10.75 22.2695V12.5195C10.5375 12.5195 10.3593 12.4478 10.2153 12.3043C10.0718 12.1603 10 11.982 10 11.7695C10 11.557 10.0718 11.3788 10.2153 11.2348C10.3593 11.0913 10.5375 11.0195 10.75 11.0195H13.75C13.75 10.807 13.822 10.6288 13.966 10.4848C14.1095 10.3413 14.2875 10.2695 14.5 10.2695H17.5C17.7125 10.2695 17.8908 10.3413 18.0347 10.4848C18.1783 10.6288 18.25 10.807 18.25 11.0195H21.25C21.4625 11.0195 21.6405 11.0913 21.784 11.2348C21.928 11.3788 22 11.557 22 11.7695C22 11.982 21.928 12.1603 21.784 12.3043C21.6405 12.4478 21.4625 12.5195 21.25 12.5195V22.2695C21.25 22.682 21.1033 23.0353 20.8097 23.3293C20.5157 23.6228 20.1625 23.7695 19.75 23.7695H12.25ZM13.75 20.0195C13.75 20.232 13.822 20.41 13.966 20.5535C14.1095 20.6975 14.2875 20.7695 14.5 20.7695C14.7125 20.7695 14.8908 20.6975 15.0347 20.5535C15.1783 20.41 15.25 20.232 15.25 20.0195V14.7695C15.25 14.557 15.1783 14.3788 15.0347 14.2348C14.8908 14.0913 14.7125 14.0195 14.5 14.0195C14.2875 14.0195 14.1095 14.0913 13.966 14.2348C13.822 14.3788 13.75 14.557 13.75 14.7695V20.0195ZM16.75 20.0195C16.75 20.232 16.822 20.41 16.966 20.5535C17.1095 20.6975 17.2875 20.7695 17.5 20.7695C17.7125 20.7695 17.8908 20.6975 18.0347 20.5535C18.1783 20.41 18.25 20.232 18.25 20.0195V14.7695C18.25 14.557 18.1783 14.3788 18.0347 14.2348C17.8908 14.0913 17.7125 14.0195 17.5 14.0195C17.2875 14.0195 17.1095 14.0913 16.966 14.2348C16.822 14.3788 16.75 14.557 16.75 14.7695V20.0195Z" fill="#10167F"/>
</svg>
