<svg width="16" height="16" viewBox="0 0 16 16" fill="none" xmlns="http://www.w3.org/2000/svg">
<path d="M14.0833 0.0195312H2.41667C1.5 0.0195312 0.75 0.769531 0.75 1.6862V7.51953C0.75 8.4362 1.5 9.1862 2.41667 9.1862H14.0833C15 9.1862 15.75 8.4362 15.75 7.51953V1.6862C15.75 0.769531 15 0.0195312 14.0833 0.0195312ZM14.0833 5.01953H10.75C10.75 6.36953 9.6 7.51953 8.25 7.51953C6.9 7.51953 5.75 6.36953 5.75 5.01953H2.41667V1.6862H14.0833V5.01953ZM10.75 10.8529H15.75V13.3529C15.75 14.2695 15 15.0195 14.0833 15.0195H2.41667C1.5 15.0195 0.75 14.2695 0.75 13.3529V10.8529H5.75C5.75 12.2362 6.86667 13.3529 8.25 13.3529C9.63333 13.3529 10.75 12.2362 10.75 10.8529Z" fill="#10167F"/>
</svg>
