<svg width="16" height="16" viewBox="0 0 16 16" fill="none" xmlns="http://www.w3.org/2000/svg">
<path d="M8 9.73203L10.0812 11.307C10.2312 11.4195 10.3813 11.4258 10.5312 11.3258C10.6812 11.2258 10.725 11.0883 10.6625 10.9133L9.875 8.30703L11.9188 6.84453C12.0688 6.74453 12.1158 6.60703 12.0597 6.43203C12.0033 6.25703 11.8812 6.16953 11.6937 6.16953H9.2L8.35625 3.43203C8.29375 3.25703 8.175 3.16953 8 3.16953C7.825 3.16953 7.70625 3.25703 7.64375 3.43203L6.8 6.16953H4.30625C4.11875 6.16953 3.997 6.25703 3.941 6.43203C3.8845 6.60703 3.93125 6.74453 4.08125 6.84453L6.125 8.30703L5.3375 10.9133C5.275 11.0883 5.31875 11.2258 5.46875 11.3258C5.61875 11.4258 5.76875 11.4195 5.91875 11.307L8 9.73203ZM8 15.0195C6.9625 15.0195 5.9875 14.8225 5.075 14.4285C4.1625 14.035 3.36875 13.5008 2.69375 12.8258C2.01875 12.1508 1.4845 11.357 1.091 10.4445C0.697 9.53203 0.5 8.55703 0.5 7.51953C0.5 6.48203 0.697 5.50703 1.091 4.59453C1.4845 3.68203 2.01875 2.88828 2.69375 2.21328C3.36875 1.53828 4.1625 1.00378 5.075 0.609781C5.9875 0.216281 6.9625 0.0195312 8 0.0195312C9.0375 0.0195312 10.0125 0.216281 10.925 0.609781C11.8375 1.00378 12.6313 1.53828 13.3063 2.21328C13.9813 2.88828 14.5155 3.68203 14.909 4.59453C15.303 5.50703 15.5 6.48203 15.5 7.51953C15.5 8.55703 15.303 9.53203 14.909 10.4445C14.5155 11.357 13.9813 12.1508 13.3063 12.8258C12.6313 13.5008 11.8375 14.035 10.925 14.4285C10.0125 14.8225 9.0375 15.0195 8 15.0195Z" fill="#10167F"/>
</svg>
