<svg width="28" height="29" viewBox="0 0 28 29" fill="none" xmlns="http://www.w3.org/2000/svg">
<g clip-path="url(#clip0_4111_12927)">
<path d="M14 7.92578C9.9375 7.92578 6.46812 10.4527 5.0625 14.0195C6.46812 17.5864 9.9375 20.1133 14 20.1133C18.0625 20.1133 21.5319 17.5864 22.9375 14.0195C21.5319 10.4527 18.0625 7.92578 14 7.92578ZM14 18.082C11.7575 18.082 9.9375 16.262 9.9375 14.0195C9.9375 11.777 11.7575 9.95703 14 9.95703C16.2425 9.95703 18.0625 11.777 18.0625 14.0195C18.0625 16.262 16.2425 18.082 14 18.082ZM14 11.582C12.6512 11.582 11.5625 12.6708 11.5625 14.0195C11.5625 15.3683 12.6512 16.457 14 16.457C15.3488 16.457 16.4375 15.3683 16.4375 14.0195C16.4375 12.6708 15.3488 11.582 14 11.582Z" fill="#10167F"/>
</g>
<defs>
<clipPath id="clip0_4111_12927">
<rect width="28" height="28" fill="white" transform="translate(0 0.0195312)"/>
</clipPath>
</defs>
</svg>
