<svg width="1441" height="492" viewBox="0 0 1441 492" fill="none" xmlns="http://www.w3.org/2000/svg">
<g clip-path="url(#clip0_18_247)">
<rect width="1441" height="491" transform="translate(0 0.0205078)" fill="#030230"/>
<path d="M1354.24 322.473L1335.99 418.581L1225.22 397.547C1229.08 329.325 1222.68 288.229 1235.1 222.853C1247.51 157.476 1246.26 145.66 1271.86 105.946C1280.93 91.8787 1292.94 87.8386 1309.56 85.3175C1325.68 82.8729 1337.2 83.8406 1350.61 93.1116C1366.33 103.983 1367.04 118.46 1372.63 136.66C1380.63 162.7 1377.29 179.058 1376.31 206.249C1374.64 252.425 1362.86 277.085 1354.24 322.473Z" fill="#0B57B3"/>
<path d="M1284.13 346.188C1302.54 401.439 1309 494.021 1309 494.021H875.133C875.133 494.021 866.319 445.946 865.08 414.723L865.072 414.532C863.271 369.148 862.19 341.923 875.133 298.609C887.026 258.809 896.112 234.596 923.811 205.152C952.997 174.127 977.077 163.356 1016.93 152.476C1058.98 140.998 1086.58 138.788 1128.05 152.476C1177.45 168.786 1200.49 195.937 1232.81 239.137C1260.25 275.813 1269.38 301.929 1284.13 346.188Z" fill="#54ABDF"/>
<g filter="url(#filter0_d_18_247)">
<g filter="url(#filter1_d_18_247)">
<path d="M1171.66 103.689C1082.1 95.0408 1002.32 160.946 993.667 250.523C991.677 271.131 993.623 291.155 998.903 309.92C999.177 310.972 999.735 312.966 1002.19 312.177C1004.74 311.205 1020.07 305.823 1022.74 304.946C1025.5 304.057 1024.54 301.945 1024.27 300.809C1020.23 285.631 1018.82 269.563 1020.41 253.105C1027.64 178.254 1094.26 123.306 1169.07 130.529C1243.68 137.732 1298.64 204.421 1291.42 279.272C1289.59 298.189 1283.93 315.781 1275.36 331.519C1274.77 332.472 1274.12 334.416 1276.49 335.738C1278.71 337.024 1292.4 344.691 1294.31 345.655C1296.12 346.777 1297.63 346.71 1299.23 343.986C1309.38 325.222 1316 304.227 1318.16 281.854C1326.81 192.277 1261.06 112.321 1171.66 103.689ZM1168.05 141.135C1099.07 134.474 1037.6 185.19 1030.95 254.123C1029.48 269.291 1030.85 284.115 1034.54 298.101C1034.75 298.96 1035.21 300.669 1037.46 299.897C1039.54 299.043 1046.83 296.568 1048.78 295.809C1050.76 295.199 1050.46 293.551 1050.24 292.796C1047.25 280.985 1046.2 268.569 1047.44 255.715C1053.22 195.801 1106.57 151.868 1166.45 157.651C1226.14 163.413 1270.13 216.745 1264.34 276.658C1262.86 291.992 1258.28 306.242 1251.21 318.909C1250.86 319.567 1250.16 321.168 1251.95 322.034C1253.53 322.946 1261.01 327.176 1262.35 327.961C1263.82 328.732 1264.84 328.551 1265.76 326.829C1273.88 312.308 1279.14 295.853 1280.84 278.251C1287.49 209.318 1236.91 147.783 1168.05 141.135ZM1165.41 168.442C1111.43 163.23 1063.52 202.811 1058.31 256.764C1057.24 267.829 1058.08 278.564 1060.47 288.824C1060.82 290.372 1061.51 291.431 1063.37 290.789C1065.18 290.126 1069.41 288.719 1071.31 288.018C1073.48 287.16 1073.27 286.272 1072.82 284.522C1070.89 275.992 1070.37 267.094 1071.25 258.014C1075.76 211.289 1117.45 176.931 1164.16 181.441C1210.78 185.942 1245.05 227.635 1240.54 274.36C1239.38 286.3 1235.76 297.53 1230.3 307.37C1229.82 308.058 1229.63 309.508 1230.81 310.273C1232.12 310.987 1237.02 313.793 1238.49 314.527C1239.97 315.278 1240.91 315.015 1241.89 313.491C1248.17 302.066 1252.23 289.322 1253.56 275.617C1258.77 221.663 1219.27 173.642 1165.41 168.442Z" fill="#1C23AB"/>
<path d="M1162.78 196.139C1153.07 195.201 1144.68 202.192 1143.74 211.896C1142.81 221.506 1149.71 229.994 1159.42 230.932C1168.97 231.853 1177.57 224.862 1178.5 215.253C1179.44 205.548 1172.33 197.061 1162.78 196.139ZM1116.88 205.762C1115.35 205.614 1113.72 206.066 1112.45 207.173L1105.21 213.073C1102.58 215.177 1102.2 219.178 1104.36 221.823L1136.85 261.187C1139.89 265.118 1142.64 271.658 1142.34 276.505L1138.66 314.646C1138.33 318.043 1140.79 321.055 1144.22 321.386L1156.99 322.619C1160.38 322.947 1163.34 320.458 1163.66 317.06L1167.35 278.92C1168.02 274.108 1172.05 268.223 1175.75 264.942L1215.13 232.518C1217.8 230.34 1218.19 226.339 1215.97 223.768L1210.03 216.595C1207.91 213.929 1203.94 213.546 1201.35 215.757L1165.81 245.107C1163.38 246.995 1161.76 248.161 1157.8 247.778C1153.75 247.387 1152.3 245.925 1150.4 243.618L1121.09 208.007C1120.01 206.672 1118.45 205.913 1116.88 205.762Z" fill="#1C23AB"/>
<path d="M1268.94 347.047C1262.65 348.711 1250.21 358.821 1244.67 362.891L1243.22 362.964C1245.24 361.136 1254.02 351.955 1256.4 348.758C1263.58 339.085 1252.83 328.293 1239.3 334.411C1234.14 336.728 1225.16 344.502 1220.92 347.245L1219.66 347.437C1221.58 345.841 1229.77 337.04 1231.96 334.14C1238.41 326.373 1227.41 317.344 1216.68 322.511C1209.09 326.127 1202.65 331.441 1196.19 335.525L1195.11 335.69C1196.87 334.284 1201.37 329.904 1203.06 328.388C1209.7 322.236 1201.87 313.658 1192.37 317.514C1183.27 321.091 1169.6 332.348 1155.1 339.777C1161.1 343.806 1172.19 345.405 1189.12 354.649C1206.11 363.92 1210.14 382.076 1197.23 394.855C1185.31 406.701 1169.46 400.797 1155.88 395.065C1140.12 388.415 1134.86 382.61 1115.96 373.929C1103.62 368.24 1098.37 367.796 1098.97 364.172C1099.58 360.007 1110.39 363.573 1120.36 368.32C1148.05 381.505 1183.86 408.788 1195.66 384.231C1205 364.887 1172.78 352.988 1160.35 349.369C1143.07 344.272 1132.17 330.202 1117.7 320.502C1095.83 305.839 1078.12 303.815 1064.73 304.915C1050.33 306.067 1029.02 315.683 1016.1 321.855C1007.11 326.057 1007 333.802 1014.15 346.371C1039.55 391.025 1085.39 423.042 1140.28 428.342C1198.48 433.962 1252.56 407.979 1285.61 364.723C1292.97 355.067 1284.04 343.272 1268.93 347.05" fill="#1C23AB"/>
</g>
</g>
<path d="M1121.21 489.086L1138.24 561.65L921.092 612.608C892.081 566.398 858.388 543.641 846.805 494.28C835.222 444.919 826.625 438.034 853.175 397.53C862.58 383.183 882.775 373.584 912.356 362.277C941.038 351.313 962.976 345.227 992.823 343.394C1027.82 341.244 1036.82 350.159 1056.87 358.631C1085.56 370.753 1088.03 383.238 1100.62 401.334C1122 432.063 1113.17 454.816 1121.21 489.086Z" fill="#FBA541"/>
<path d="M1109.24 465.469C1100.9 485.391 1097.53 518.895 1097.53 518.895L1295.68 464.494C1295.68 464.494 1307.75 470.041 1290.4 445.267C1273.05 420.493 1254.32 409.129 1223.31 400.675C1204.73 395.612 1192.52 391.163 1173.66 396.583C1158.81 400.852 1151.7 407.354 1140.38 417.535C1123.49 432.715 1117.74 445.125 1109.24 465.469Z" fill="#D85747"/>
<path d="M1195.97 512.609C1195.97 512.609 1204.42 478.304 1212.78 457.204C1223.57 429.951 1234.09 416.548 1247.75 390.498C1261.41 364.447 1275.59 360.846 1297.92 359.155C1313.43 357.981 1323.2 360.844 1335.5 369.595C1349.1 379.275 1353.15 389.811 1358.56 405.972C1367.78 433.542 1359.69 452.964 1352.38 482.253C1344.51 513.808 1318.33 558.964 1318.33 558.964L1301.47 594.063L1195.97 512.609Z" fill="#E28E83"/>
</g>
<defs>
<filter id="filter0_d_18_247" x="954.508" y="81.9263" width="389.414" height="376.175" filterUnits="userSpaceOnUse" color-interpolation-filters="sRGB">
<feFlood flood-opacity="0" result="BackgroundImageFix"/>
<feColorMatrix in="SourceAlpha" type="matrix" values="0 0 0 0 0 0 0 0 0 0 0 0 0 0 0 0 0 0 127 0" result="hardAlpha"/>
<feOffset dy="4"/>
<feGaussianBlur stdDeviation="12.5"/>
<feComposite in2="hardAlpha" operator="out"/>
<feColorMatrix type="matrix" values="0 0 0 0 0.0666667 0 0 0 0 0 0 0 0 0 1 0 0 0 0.25 0"/>
<feBlend mode="normal" in2="BackgroundImageFix" result="effect1_dropShadow_18_247"/>
<feBlend mode="normal" in="SourceGraphic" in2="effect1_dropShadow_18_247" result="shape"/>
</filter>
<filter id="filter1_d_18_247" x="976.902" y="90.9263" width="358.02" height="358.175" filterUnits="userSpaceOnUse" color-interpolation-filters="sRGB">
<feFlood flood-opacity="0" result="BackgroundImageFix"/>
<feColorMatrix in="SourceAlpha" type="matrix" values="0 0 0 0 0 0 0 0 0 0 0 0 0 0 0 0 0 0 127 0" result="hardAlpha"/>
<feOffset dy="4"/>
<feGaussianBlur stdDeviation="8"/>
<feComposite in2="hardAlpha" operator="out"/>
<feColorMatrix type="matrix" values="0 0 0 0 0.0627451 0 0 0 0 0.0862745 0 0 0 0 0.498039 0 0 0 0.4 0"/>
<feBlend mode="normal" in2="BackgroundImageFix" result="effect1_dropShadow_18_247"/>
<feBlend mode="normal" in="SourceGraphic" in2="effect1_dropShadow_18_247" result="shape"/>
</filter>
<clipPath id="clip0_18_247">
<rect width="1441" height="491" fill="white" transform="translate(0 0.0205078)"/>
</clipPath>
</defs>
</svg>
