<svg width="81" height="80" viewBox="0 0 81 80" fill="none" xmlns="http://www.w3.org/2000/svg">
<path d="M40.4847 0.40625C62.566 0.40625 80.5 18.1523 80.5 39.9494C80.5 44.964 79.5523 49.7462 77.8201 54.1473C77.7284 54.3947 77.545 54.8624 76.9641 54.6149C76.3629 54.3213 72.7456 52.6669 72.1138 52.3933C71.4617 52.1147 71.747 51.6279 71.8387 51.3604C73.1837 47.7951 73.9072 43.9542 73.9072 39.9494C73.9072 21.7357 58.9282 6.93744 40.4847 6.93744C22.0921 6.93744 7.09279 21.7357 7.09279 39.9494C7.09279 44.5527 8.06082 48.9256 9.78289 52.9193C9.90517 53.1627 10.0173 53.6464 9.40586 53.9099C8.83524 54.1684 5.30957 55.6981 4.82046 55.8862C4.35173 56.1145 3.9849 56.0632 3.65883 55.3692C1.62087 50.6091 0.5 45.3934 0.5 39.9494C0.5 18.1523 18.4442 0.40625 40.4847 0.40625ZM40.4847 9.51814C57.4915 9.51814 71.3088 23.1759 71.3088 39.9494C71.3088 43.6405 70.6261 47.1826 69.3931 50.4683C69.3218 50.6705 69.169 51.0718 68.6391 50.8334C68.15 50.579 66.4279 49.8126 65.9694 49.5843C65.5006 49.3912 65.6127 49.001 65.6841 48.824C66.6928 46.0462 67.2431 43.0772 67.2431 39.9494C67.2431 25.3704 55.2497 13.537 40.4847 13.537C25.7707 13.537 13.7671 25.3704 13.7671 39.9494C13.7671 43.6807 14.5517 47.2229 15.9783 50.4412C16.0496 50.6081 16.1821 51.0104 15.7235 51.1774C15.316 51.3604 13.3901 52.2062 13.0436 52.3641C12.6666 52.516 12.422 52.4486 12.2386 52.0121C10.5981 48.3221 9.70138 44.2328 9.70138 39.9494C9.70138 23.1759 23.5085 9.51814 40.4847 9.51814ZM40.4847 16.163C53.7926 16.163 64.5632 26.8207 64.5632 39.9494C64.5632 42.6418 64.1046 45.2104 63.2793 47.6282C63.157 47.9932 62.9634 48.2326 62.5252 48.0345C62.0972 47.8323 61.0987 47.3948 60.6503 47.1816C60.1408 46.9242 60.2121 46.715 60.365 46.3036C61.0375 44.2922 61.3738 42.159 61.3738 39.9494C61.3738 28.5797 51.9992 19.326 40.4847 19.326C28.9906 19.326 19.6364 28.5797 19.6364 39.9494C19.6364 42.855 20.258 45.6469 21.3585 48.1461C21.4604 48.3231 21.4706 48.6771 21.1649 48.834C20.8286 48.9758 19.5651 49.538 19.1881 49.6809C18.811 49.8277 18.5869 49.7422 18.3831 49.352C17.1195 46.4515 16.4266 43.2844 16.4266 39.9494C16.4266 26.8207 27.2074 16.163 40.4847 16.163Z" fill="#10167F" fill-opacity="0.52"/>
<path d="M40.474 22.9015C42.8686 22.9015 44.7537 24.7822 44.7537 27.1437C44.7537 29.482 42.8686 31.3678 40.474 31.3678C38.1201 31.3678 36.1841 29.482 36.1841 27.1437C36.1841 24.7822 38.1201 22.9015 40.474 22.9015ZM51.4585 26.2898C51.8356 26.2898 52.2228 26.4367 52.5081 26.7334L54.1385 28.3244C54.7295 28.8927 54.7295 29.8662 54.1385 30.4535L45.2734 39.1873C44.4378 40.0643 43.6124 41.5769 43.5716 42.7526V52.0334C43.5716 52.8601 42.8991 53.529 42.0534 53.529H38.9047C38.0692 53.529 37.4068 52.8601 37.4068 52.0334V42.7526C37.3559 41.5769 36.5101 40.0643 35.6848 39.1873L26.8298 30.4535C26.2286 29.8662 26.2286 28.8927 26.8298 28.3244L28.45 26.7334C29.0308 26.14 30.0091 26.14 30.5899 26.7334L38.5787 34.6364C39.1289 35.1483 39.4957 35.4671 40.474 35.4671C41.4726 35.4671 41.8598 35.1483 42.3794 34.6364L50.3784 26.7334C50.6739 26.4367 51.0713 26.2898 51.4585 26.2898Z" fill="#10167F" fill-opacity="0.52"/>
<path d="M10.9854 56.8123C12.4814 57.3597 15.281 60.0867 16.5391 61.1969L16.8908 61.2483C16.4421 60.7607 14.5128 58.3428 14.0073 57.5167C12.4815 55.0176 15.3611 52.6659 18.5214 54.4558C19.7291 55.1347 21.7373 57.2177 22.7096 57.9779L23.0135 58.0536C22.5803 57.6239 20.7894 55.3117 20.3225 54.5614C18.9299 52.5388 21.8302 50.618 24.3285 52.1136C26.0974 53.162 27.5444 54.5928 29.0275 55.7281L29.2861 55.7928C28.8891 55.4129 27.8948 54.2523 27.5171 53.8475C26.0404 52.2098 28.1546 50.3239 30.3838 51.4746C32.5226 52.5488 35.5962 55.581 38.9633 57.7097C37.4026 58.5413 34.6548 58.6684 30.3011 60.503C25.9331 62.3426 24.521 66.6259 27.3736 70.0075C30.0062 73.1408 34.0161 72.0863 37.4686 71.0206C41.4745 69.7841 42.8956 68.507 47.7175 66.8542C50.8661 65.77 52.1579 65.7849 52.0984 64.8975C52.0467 63.8791 49.3222 64.4872 46.7748 65.3996C39.7005 67.9336 30.3112 73.6777 28.0063 67.4824C26.183 62.6017 34.332 60.483 37.4534 59.8998C41.7955 59.0733 44.7903 55.935 48.5531 53.9333C54.2401 50.9072 58.6132 50.8313 61.8579 51.4082C65.3505 52.0215 70.3275 54.8356 73.3388 56.6244C75.4348 57.8468 75.2784 59.7164 73.2366 62.5804C65.9786 72.7544 54.0268 79.4062 40.4938 79.4062C26.1445 79.4062 13.5479 71.8834 6.49658 60.6856C4.92674 58.1865 7.38622 55.5508 10.9861 56.8131" fill="#10167F" fill-opacity="0.52"/>
</svg>
