<svg width="40" height="41" viewBox="0 0 40 41" fill="none" xmlns="http://www.w3.org/2000/svg">
<path d="M20.0076 0C8.96701 0 0 8.98994 0 20.0321C0 22.5724 0.473827 24.995 1.33996 27.2246C1.38581 27.3499 1.47752 27.5868 1.76793 27.4615C2.06853 27.3127 3.87721 26.4746 4.19309 26.336C4.51917 26.1949 4.37651 25.9483 4.33066 25.8128C3.65813 24.0066 3.2964 22.0609 3.2964 20.0321C3.2964 10.8052 10.7859 3.30862 20.0076 3.30862C29.2039 3.30862 36.7036 10.8052 36.7036 20.0321C36.7036 22.364 36.2196 24.5793 35.3586 26.6025C35.2974 26.7258 35.2414 26.9708 35.5471 27.1043C35.8324 27.2353 37.5952 28.0102 37.8398 28.1055C38.0741 28.2211 38.2575 28.1951 38.4206 27.8436C39.4396 25.4322 40 22.79 40 20.0321C40 8.98994 31.0279 0 20.0076 0ZM20.0076 4.61597C11.5043 4.61597 4.5956 11.5348 4.5956 20.0321C4.5956 21.9019 4.93695 23.6963 5.55343 25.3608C5.58909 25.4633 5.66552 25.6665 5.93045 25.5458C6.17501 25.4169 7.03604 25.0287 7.26531 24.913C7.49968 24.8152 7.44363 24.6175 7.40797 24.5278C6.90358 23.1206 6.62845 21.6166 6.62845 20.0321C6.62845 12.6465 12.6251 6.65189 20.0076 6.65189C27.3647 6.65189 33.3665 12.6465 33.3665 20.0321C33.3665 21.9223 32.9741 23.7167 32.2609 25.3471C32.2252 25.4317 32.159 25.6355 32.3882 25.72C32.592 25.8128 33.555 26.2412 33.7282 26.3212C33.9167 26.3982 34.039 26.364 34.1307 26.1429C34.951 24.2736 35.3993 22.202 35.3993 20.0321C35.3993 11.5348 28.4957 4.61597 20.0076 4.61597ZM20.0076 7.98217C13.3537 7.98217 7.96841 13.3812 7.96841 20.0321C7.96841 21.396 8.19768 22.6972 8.61036 23.9221C8.6715 24.107 8.76831 24.2283 8.98739 24.1279C9.20138 24.0255 9.70067 23.8038 9.92485 23.6958C10.1796 23.5654 10.1439 23.4594 10.0675 23.2511C9.73124 22.2321 9.56312 21.1514 9.56312 20.0321C9.56312 14.2723 14.2504 9.58451 20.0076 9.58451C25.7547 9.58451 30.4318 14.2723 30.4318 20.0321C30.4318 21.504 30.121 22.9184 29.5708 24.1844C29.5198 24.2741 29.5147 24.4534 29.6676 24.5329C29.8357 24.6048 30.4675 24.8896 30.656 24.9619C30.8445 25.0363 30.9566 24.993 31.0585 24.7953C31.6902 23.3259 32.0367 21.7216 32.0367 20.0321C32.0367 13.3812 26.6463 7.98217 20.0076 7.98217Z" fill="white"/>
<path d="M20.013 11.3958C18.8157 11.3958 17.8732 12.3486 17.8732 13.5449C17.8732 14.7294 18.8157 15.6847 20.013 15.6847C21.1899 15.6847 22.158 14.7294 22.158 13.5449C22.158 12.3486 21.1899 11.3958 20.013 11.3958ZM14.5207 13.1123C14.3322 13.1123 14.1386 13.1867 13.996 13.337L13.1808 14.143C12.8853 14.4309 12.8853 14.9241 13.1808 15.2216L17.6133 19.646C18.0311 20.0903 18.4438 20.8566 18.4642 21.4521V26.1537C18.4642 26.5725 18.8004 26.9113 19.2233 26.9113H20.7976C21.2154 26.9113 21.5466 26.5725 21.5466 26.1537V21.4521C21.5721 20.8566 21.9949 20.0903 22.4076 19.646L26.8351 15.2216C27.1357 14.9241 27.1357 14.4309 26.8351 14.143L26.025 13.337C25.7346 13.0364 25.2455 13.0364 24.9551 13.337L20.9607 17.3406C20.6855 17.5999 20.5021 17.7614 20.013 17.7614C19.5137 17.7614 19.3201 17.5999 19.0603 17.3406L15.0608 13.337C14.913 13.1867 14.7143 13.1123 14.5207 13.1123Z" fill="white"/>
<path d="M34.7573 28.5746C34.0093 28.8519 32.6095 30.2334 31.9804 30.7958L31.8046 30.8219C32.0289 30.5748 32.9936 29.35 33.2463 28.9315C34.0093 27.6654 32.5694 26.4741 30.9893 27.3808C30.3855 27.7248 29.3814 28.78 28.8952 29.1651L28.7433 29.2034C28.9599 28.9858 29.8553 27.8144 30.0887 27.4343C30.785 26.4097 29.3349 25.4367 28.0858 26.1943C27.2013 26.7254 26.4778 27.4502 25.7363 28.0254L25.607 28.0581C25.8054 27.8657 26.3026 27.2778 26.4914 27.0727C27.2298 26.243 26.1727 25.2877 25.0581 25.8706C23.9887 26.4148 22.4519 27.9508 20.7683 29.0292C21.5487 29.4505 22.9226 29.5149 25.0995 30.4443C27.2834 31.3762 27.9895 33.5461 26.5632 35.2592C25.2469 36.8465 23.242 36.3123 21.5157 35.7724C19.5128 35.146 18.8022 34.499 16.3913 33.6618C14.8169 33.1125 14.1711 33.12 14.2008 32.6705C14.2266 32.1546 15.5889 32.4626 16.8626 32.9248C20.3998 34.2085 25.0944 37.1184 26.2469 33.98C27.1585 31.5075 23.084 30.4341 21.5233 30.1387C19.3523 29.72 17.8549 28.1302 15.9734 27.1161C13.13 25.5831 10.9434 25.5447 9.32103 25.837C7.57475 26.1476 5.08626 27.5733 3.58062 28.4794C2.5326 29.0987 2.6108 30.0458 3.63169 31.4967C7.26068 36.6507 13.2366 40.0204 20.0031 40.0204C27.1777 40.0204 33.476 36.2095 37.0017 30.5368C37.7866 29.2708 36.5569 27.9356 34.7569 28.575" fill="white"/>
</svg>