<svg width="688" height="295" viewBox="0 0 688 295" fill="none" xmlns="http://www.w3.org/2000/svg">
<g opacity="0.35">
<path fill-rule="evenodd" clip-rule="evenodd" d="M440.716 240.147C471.449 169.435 442.183 87.7706 375.346 52.0657C369.5 48.9429 362.393 51.7681 359.752 57.8462L252.193 305.322C249.551 311.401 252.334 318.524 258.605 320.667C330.309 345.176 409.983 310.859 440.716 240.147Z" fill="#D85747"/>
<rect x="-9.91699" y="41.3867" width="178.348" height="50.9067" rx="12" transform="rotate(14.533 -9.91699 41.3867)" fill="#E28E83"/>
<rect x="247.41" y="-286.594" width="23.5217" height="555.886" rx="11.7609" transform="rotate(-11.8849 247.41 -286.594)" fill="#FBA541"/>
<rect x="688" y="246.871" width="23.5217" height="555.886" rx="11.7609" transform="rotate(102.029 688 246.871)" fill="#0B57B3"/>
<path d="M160.098 250.755C164.514 234.672 164.837 217.74 161.037 201.501L159.415 194.564C156.848 183.594 152.446 173.136 146.395 163.633L145.581 162.354C137.323 149.386 126.154 138.523 112.962 130.629C102.256 124.222 90.3986 119.895 78.0849 117.887C56.7765 114.412 34.854 117.963 15.75 128.02L15.1825 128.319C4.23376 134.083 -5.55013 141.829 -13.6722 151.163L-14.7178 152.365C-20.7646 159.314 -25.8222 167.066 -29.7471 175.4L-38.7343 194.482C-43.4146 204.42 -45.2884 215.448 -44.153 226.374C-43.0055 237.416 -38.8289 247.926 -32.0845 256.744L-19.2511 273.522C-15.1614 278.869 -10.5422 283.79 -5.46381 288.208L12.3214 303.684C22.5587 312.592 34.6063 319.173 47.6333 322.974L54.0645 324.85C68.0723 328.937 82.9894 328.686 96.8515 324.13C106.132 321.079 114.697 316.178 122.029 309.722L128.45 304.069C143.087 291.182 153.636 274.296 158.799 255.49L160.098 250.755Z" fill="#54ABDF"/>
<path d="M210.087 328.718C219.839 327.555 229.235 323.981 237.271 318.334L238.837 317.234C243.681 313.829 247.9 309.611 251.305 304.767L251.632 304.301C256.193 297.811 259.109 290.309 260.128 282.442C260.947 276.123 260.524 269.706 258.883 263.549L258.764 263.1C255.916 252.411 249.69 242.929 241.014 236.067L240.115 235.356C235.004 231.312 229.211 228.214 223.011 226.207L222.376 226.001C217.454 224.407 212.343 223.474 207.176 223.225L195.941 222.684C190.317 222.413 184.722 223.656 179.741 226.283C174.49 229.053 170.129 233.251 167.161 238.393L162.625 246.253C160.419 250.076 158.622 254.12 157.262 258.319L154.07 268.179C151.865 274.988 151.222 282.205 152.188 289.296L152.565 292.065C153.623 299.838 157.019 307.105 162.303 312.903C165.713 316.647 169.825 319.684 174.406 321.844L177.998 323.537C187.964 328.235 199.146 330.023 210.087 328.718Z" fill="#FBA541"/>
</g>
</svg>
