<svg width="28" height="28" viewBox="0 0 28 28" fill="none" xmlns="http://www.w3.org/2000/svg">
<mask id="mask0_2860_9928" style="mask-type:alpha" maskUnits="userSpaceOnUse" x="0" y="0" width="28" height="28">
<rect x="0.5" y="0.298828" width="26.7178" height="26.7178" fill="#D9D9D9"/>
</mask>
<g mask="url(#mask0_2860_9928)">
<path d="M13.8591 24.2328C12.546 24.2328 11.3158 23.9845 10.1684 23.4878C9.02085 22.9911 8.02033 22.316 7.16684 21.4625C6.31335 20.609 5.63826 19.6085 5.14157 18.4609C4.64488 17.3135 4.39653 16.0833 4.39653 14.7702C4.39653 13.4572 4.64488 12.2269 5.14157 11.0796C5.63826 9.93199 6.31335 8.93146 7.16684 8.07797C8.02033 7.22448 9.02085 6.5494 10.1684 6.0527C11.3158 5.55601 12.546 5.30766 13.8591 5.30766C15.1722 5.30766 16.4024 5.55601 17.5498 6.0527C18.6974 6.5494 19.6979 7.22448 20.5514 8.07797C21.4049 8.93146 22.0799 9.93199 22.5766 11.0796C23.0733 12.2269 23.3217 13.4572 23.3217 14.7702C23.3217 16.0833 23.0733 17.3135 22.5766 18.4609C22.0799 19.6085 21.4049 20.609 20.5514 21.4625C19.6979 22.316 18.6974 22.9911 17.5498 23.4878C16.4024 23.9845 15.1722 24.2328 13.8591 24.2328ZM17.1688 19.2533L18.3421 18.0799L14.694 14.4321V9.20402H13.0242V15.1084L17.1688 19.2533ZM6.9055 3.51367L8.07886 4.68675L3.77562 8.99L2.60254 7.81664L6.9055 3.51367ZM20.8127 3.51367L25.1157 7.81664L23.9426 8.99L19.6393 4.68675L20.8127 3.51367ZM13.8591 22.5629C16.0229 22.5629 17.8626 21.8051 19.3783 20.2894C20.894 18.7737 21.6518 16.934 21.6518 14.7702C21.6518 12.6065 20.894 10.7667 19.3783 9.25105C17.8626 7.73537 16.0229 6.97753 13.8591 6.97753C11.6953 6.97753 9.8556 7.73537 8.33992 9.25105C6.82424 10.7667 6.0664 12.6065 6.0664 14.7702C6.0664 16.934 6.82424 18.7737 8.33992 20.2894C9.8556 21.8051 11.6953 22.5629 13.8591 22.5629Z" fill="#10167F" fill-opacity="0.6"/>
</g>
</svg>
