<svg width="1450" height="257" viewBox="0 0 1450 257" fill="none" xmlns="http://www.w3.org/2000/svg">
<g clip-path="url(#clip0_28_393)">
<rect width="1450" height="257" fill="#030230"/>
<g opacity="0.35">
<path fill-rule="evenodd" clip-rule="evenodd" d="M440.216 240.127C470.949 169.415 441.683 87.751 374.846 52.0462C369 48.9234 361.893 51.7485 359.252 57.8267L251.693 305.303C249.051 311.381 251.834 318.504 258.105 320.648C329.809 345.156 409.483 310.84 440.216 240.127Z" fill="#D85747"/>
<rect x="-10.417" y="41.3652" width="178.348" height="50.9067" rx="12" transform="rotate(14.533 -10.417 41.3652)" fill="#E28E83"/>
<rect x="246.91" y="-286.613" width="23.5217" height="555.886" rx="11.7609" transform="rotate(-11.8849 246.91 -286.613)" fill="#FBA541"/>
<rect x="687.5" y="246.852" width="23.5217" height="555.886" rx="11.7609" transform="rotate(102.029 687.5 246.852)" fill="#0B57B3"/>
<path d="M159.598 250.734C164.014 234.651 164.337 217.719 160.537 201.48L158.915 194.543C156.348 183.573 151.946 173.115 145.895 163.612L145.081 162.332C136.823 149.364 125.654 138.501 112.462 130.607V130.607C101.756 124.201 89.8986 119.874 77.5849 117.866V117.866C56.2765 114.391 34.354 117.941 15.25 127.999L14.6825 128.298C3.73376 134.062 -6.05013 141.808 -14.1722 151.142L-15.2178 152.344C-21.2646 159.293 -26.3222 167.044 -30.2471 175.378L-39.2343 194.461C-43.9146 204.398 -45.7884 215.427 -44.653 226.353V226.353C-43.5054 237.395 -39.3289 247.905 -32.5845 256.722L-19.7512 273.501C-15.6614 278.848 -11.0422 283.768 -5.96381 288.187L11.8214 303.662C22.0587 312.57 34.1063 319.151 47.1333 322.952L53.5645 324.829C67.5723 328.916 82.4894 328.665 96.3515 324.108V324.108C105.632 321.058 114.197 316.156 121.529 309.701L127.95 304.047C142.587 291.16 153.136 274.274 158.299 255.468L159.598 250.734Z" fill="#54ABDF"/>
<path d="M209.587 328.697C219.339 327.534 228.735 323.959 236.771 318.313L238.337 317.212C243.181 313.808 247.4 309.59 250.805 304.745L251.132 304.28C255.693 297.789 258.609 290.288 259.628 282.421V282.421C260.447 276.102 260.024 269.684 258.383 263.527L258.264 263.078C255.416 252.39 249.19 242.908 240.514 236.045L239.615 235.334C234.504 231.291 228.711 228.193 222.511 226.185L221.876 225.979C216.954 224.386 211.843 223.452 206.676 223.204L195.441 222.663C189.817 222.392 184.222 223.635 179.241 226.261V226.261C173.99 229.031 169.629 233.229 166.661 238.372L162.125 246.232C159.919 250.055 158.122 254.099 156.762 258.298L153.57 268.158C151.365 274.966 150.722 282.184 151.688 289.275L152.065 292.043C153.123 299.816 156.519 307.083 161.803 312.882V312.882C165.213 316.625 169.325 319.663 173.906 321.822L177.498 323.515C187.464 328.213 198.646 330.001 209.587 328.697V328.697Z" fill="#FBA541"/>
</g>
</g>
<defs>
<clipPath id="clip0_28_393">
<rect width="1450" height="257" fill="white"/>
</clipPath>
</defs>
</svg>
