<svg width="28" height="28" viewBox="0 0 28 28" fill="none" xmlns="http://www.w3.org/2000/svg">
<mask id="mask0_2860_9638" style="mask-type:alpha" maskUnits="userSpaceOnUse" x="0" y="0" width="28" height="28">
<rect x="0.5" y="0.863281" width="26.7178" height="26.7178" fill="#D9D9D9"/>
</mask>
<g mask="url(#mask0_2860_9638)">
<path d="M6.40895 24.7975C5.84658 24.7975 5.37057 24.6027 4.98094 24.2131C4.5913 23.8234 4.39648 23.3474 4.39648 22.785V7.88483C4.39648 7.32246 4.5913 6.84646 4.98094 6.45682C5.37057 6.06718 5.84658 5.87237 6.40895 5.87237H7.95024V3.51758H9.66296V5.87237H18.098V3.51758H19.7679V5.87237H21.3092C21.8715 5.87237 22.3475 6.06718 22.7372 6.45682C23.1268 6.84646 23.3216 7.32246 23.3216 7.88483V22.785C23.3216 23.3474 23.1268 23.8234 22.7372 24.2131C22.3475 24.6027 21.8715 24.7975 21.3092 24.7975H6.40895ZM6.40895 23.1276H21.3092C21.3949 23.1276 21.4734 23.0919 21.5446 23.0205C21.616 22.9492 21.6518 22.8708 21.6518 22.785V12.3378H6.06635V22.785C6.06635 22.8708 6.10207 22.9492 6.1735 23.0205C6.24475 23.0919 6.32323 23.1276 6.40895 23.1276ZM6.06635 10.6679H21.6518V7.88483C21.6518 7.79911 21.616 7.72063 21.5446 7.64938C21.4734 7.57795 21.3949 7.54223 21.3092 7.54223H6.40895C6.32323 7.54223 6.24475 7.57795 6.1735 7.64938C6.10207 7.72063 6.06635 7.79911 6.06635 7.88483V10.6679Z" fill="#10167F" fill-opacity="0.6"/>
</g>
</svg>
