<svg width="28" height="27" viewBox="0 0 28 27" fill="none" xmlns="http://www.w3.org/2000/svg">
<mask id="mask0_2860_9934" style="mask-type:alpha" maskUnits="userSpaceOnUse" x="0" y="0" width="28" height="27">
<rect x="0.5" y="0.0175781" width="26.7178" height="26.7178" fill="#D9D9D9"/>
</mask>
<g mask="url(#mask0_2860_9934)">
<path d="M13.8613 13.2266C14.4151 13.2266 14.8886 13.0294 15.2818 12.6349C15.6751 12.2404 15.8718 11.7663 15.8718 11.2125C15.8718 10.6586 15.6745 10.185 15.2801 9.79167C14.8856 9.39851 14.4114 9.20193 13.8574 9.20193C13.3035 9.20193 12.83 9.39916 12.4369 9.79362C12.0435 10.1881 11.8468 10.6623 11.8468 11.2163C11.8468 11.7702 12.0441 12.2437 12.4385 12.6368C12.833 13.03 13.3072 13.2266 13.8613 13.2266ZM13.8593 21.741C16.0372 19.7913 17.7038 17.9212 18.8592 16.1308C20.0145 14.3403 20.5922 12.7721 20.5922 11.4262C20.5922 9.39675 19.9474 7.72837 18.6579 6.42105C17.3684 5.11373 15.7689 4.46007 13.8593 4.46007C11.9497 4.46007 10.3502 5.11373 9.06067 6.42105C7.77116 7.72837 7.12641 9.39675 7.12641 11.4262C7.12641 12.7721 7.70409 14.3403 8.85945 16.1308C10.0148 17.9212 11.6814 19.7913 13.8593 21.741ZM13.8593 23.963C11.0576 21.5354 8.95677 19.2761 7.55668 17.1853C6.15659 15.0942 5.45654 13.1745 5.45654 11.4262C5.45654 8.8572 6.28749 6.77738 7.94937 5.18674C9.61145 3.5961 11.5814 2.80078 13.8593 2.80078C16.1372 2.80078 18.1072 3.5961 19.7692 5.18674C21.4311 6.77738 22.2621 8.8572 22.2621 11.4262C22.2621 13.1745 21.562 15.0942 20.1619 17.1853C18.7618 19.2761 16.661 21.5354 13.8593 23.963Z" fill="#10167F" fill-opacity="0.6"/>
</g>
</svg>
