<svg width="28" height="28" viewBox="0 0 28 28" fill="none" xmlns="http://www.w3.org/2000/svg">
<mask id="mask0_2860_9941" style="mask-type:alpha" maskUnits="userSpaceOnUse" x="0" y="0" width="28" height="28">
<rect x="0.5" y="0.734375" width="26.7178" height="26.7178" fill="#D9D9D9"/>
</mask>
<g mask="url(#mask0_2860_9941)">
<path d="M13.0242 22.4428V13.0915L10.2797 15.836L9.10638 14.6287L13.8591 9.87595L18.6118 14.6287L17.4384 15.836L14.694 13.0915V22.4428H13.0242ZM5.50977 10.7752V7.75661C5.50977 7.19423 5.70458 6.71823 6.09422 6.32859C6.48385 5.93896 6.95986 5.74414 7.52223 5.74414H20.196C20.7583 5.74414 21.2343 5.93896 21.624 6.32859C22.0136 6.71823 22.2084 7.19423 22.2084 7.75661V10.7752H20.5386V7.75661C20.5386 7.67089 20.5028 7.5924 20.4314 7.52116C20.3602 7.44972 20.2817 7.41401 20.196 7.41401H7.52223C7.43651 7.41401 7.35803 7.44972 7.28678 7.52116C7.21535 7.5924 7.17963 7.67089 7.17963 7.75661V10.7752H5.50977Z" fill="#10167F" fill-opacity="0.6"/>
</g>
</svg>
