<svg version="1.1" id="Layer_1" xmlns="http://www.w3.org/2000/svg" xmlns:xlink="http://www.w3.org/1999/xlink" x="0px" y="0px"
	 width="100%" viewBox="0 0 294 152" enable-background="new 0 0 294 152" xml:space="preserve">
<path fill="#FFFFFF" opacity="1.000000" stroke="none" 
	d="
M195.000000,153.000000 
	C130.000015,153.000000 65.500015,153.000000 1.000017,153.000000 
	C1.000012,102.333344 1.000012,51.666695 1.000006,1.000031 
	C98.999969,1.000021 196.999939,1.000021 294.999939,1.000010 
	C294.999939,51.666637 294.999939,102.333275 294.999969,152.999954 
	C261.833344,153.000000 228.666672,153.000000 195.000000,153.000000 
M119.353867,136.610352 
	C126.565331,138.756363 133.776794,140.902359 141.599426,143.615677 
	C149.113281,143.346268 156.806854,143.982849 164.087601,142.538437 
	C170.637161,141.239059 176.733765,137.656372 183.740692,135.118561 
	C186.819565,136.420135 189.898438,137.721710 193.453461,139.571396 
	C201.634384,141.035751 209.815292,142.500122 218.914703,143.992584 
	C223.197830,143.623795 227.607605,143.787323 231.744263,142.802979 
	C268.677399,134.014572 290.491241,101.824539 284.925598,64.633514 
	C281.136719,39.315090 259.430298,15.781422 234.014664,10.330746 
	C227.226990,8.875046 220.017258,9.387353 212.141251,8.988515 
	C202.884247,9.875332 193.760025,11.198017 185.492477,16.986137 
	C185.492477,16.986137 185.001343,17.047577 184.243622,17.013325 
	C178.984695,15.005716 173.841141,12.585615 168.442978,11.075909 
	C157.015640,7.880030 145.453445,6.676420 133.143509,10.968839 
	C126.461922,13.615242 119.780327,16.261646 112.727524,18.327545 
	C93.738823,6.733700 73.798737,5.390210 53.171162,13.110581 
	C28.498886,22.344782 9.858035,48.528320 10.071386,74.225571 
	C10.323431,104.583290 23.950428,126.941269 52.140079,138.866196 
	C72.890198,147.644012 93.576241,146.397766 113.701668,134.044510 
	C115.439911,134.719131 117.178154,135.393753 119.353867,136.610352 
z"/>
<path fill="#DDDEEC" opacity="1.000000" stroke="none" 
	d="
M112.994621,133.980942 
	C93.576241,146.397766 72.890198,147.644012 52.140079,138.866196 
	C23.950428,126.941269 10.323431,104.583290 10.071386,74.225571 
	C9.858035,48.528320 28.498886,22.344782 53.171162,13.110581 
	C73.798737,5.390210 93.738823,6.733700 112.636894,18.754959 
	C112.030609,19.787136 111.514954,20.391901 110.737213,20.999010 
	C110.300385,21.002556 110.125641,21.003759 109.630074,20.861668 
	C93.312531,12.150437 76.318161,10.177672 59.226917,15.623993 
	C30.865063,24.661823 12.134188,50.526741 14.938188,81.951218 
	C16.668890,101.347244 25.580856,116.577621 41.037670,127.931709 
	C55.514324,138.565811 72.003899,142.198563 89.536346,138.690109 
	C96.297531,137.337112 102.583153,133.607635 109.408165,131.001297 
	C110.818802,132.021423 111.906715,133.001190 112.994621,133.980942 
z"/>
<path fill="#DDDEEC" opacity="1.000000" stroke="none" 
	d="
M213.001282,8.996153 
	C220.017258,9.387353 227.226990,8.875046 234.014664,10.330746 
	C259.430298,15.781422 281.136719,39.315090 284.925598,64.633514 
	C290.491241,101.824539 268.677399,134.014572 231.744263,142.802979 
	C227.607605,143.787323 223.197830,143.623795 218.457031,143.584167 
	C217.998962,142.121002 217.998566,141.066238 218.440567,140.005096 
	C235.686844,139.521408 250.523788,133.749756 262.367218,121.917465 
	C276.148132,108.149529 282.560425,91.345444 281.114288,71.536217 
	C279.690033,52.026478 271.035614,36.792507 255.655563,25.124763 
	C243.032288,15.548418 228.486954,12.604667 212.751724,13.011930 
	C212.326370,12.990335 212.156265,12.981155 212.022949,12.628889 
	C212.373596,11.189252 212.687439,10.092702 213.001282,8.996153 
z"/>
<path fill="#DBDCEA" opacity="1.000000" stroke="none" 
	d="
M133.938278,10.945019 
	C145.453445,6.676420 157.015640,7.880030 168.442978,11.075909 
	C173.841141,12.585615 178.984695,15.005716 184.409134,17.285900 
	C182.738525,18.381281 180.902405,19.204088 178.842499,19.746922 
	C168.367432,14.175380 157.467545,12.165751 145.593796,13.014227 
	C142.791458,13.344243 140.396851,13.680907 137.626831,14.011877 
	C136.500534,14.003222 135.749634,14.000260 134.996887,13.652805 
	C134.642776,12.520547 134.290527,11.732782 133.938278,10.945019 
z"/>
<path fill="#DBDCEA" opacity="1.000000" stroke="none" 
	d="
M183.030151,135.080841 
	C176.733765,137.656372 170.637161,141.239059 164.087601,142.538437 
	C156.806854,143.982849 149.113281,143.346268 141.268127,142.982758 
	C140.619797,141.242554 140.302765,140.135254 140.415466,139.018890 
	C147.547302,138.996765 154.413284,139.887787 160.904510,138.711243 
	C167.146851,137.579819 173.001389,134.308792 179.270279,131.982071 
	C179.514236,131.986237 180.002167,131.992065 180.137115,132.278290 
	C181.191422,133.403290 182.110794,134.242065 183.030151,135.080841 
z"/>
<path fill="#CDCEE2" opacity="1.000000" stroke="none" 
	d="
M179.066284,20.026899 
	C180.902405,19.204088 182.738525,18.381281 184.787994,17.303024 
	C185.001343,17.047577 185.492477,16.986137 185.876221,17.293980 
	C186.506653,18.719791 186.753357,19.837757 186.686661,21.100275 
	C184.580017,22.490923 182.786758,23.737019 180.650131,25.021961 
	C177.536621,27.704126 174.766479,30.347441 171.694122,33.138786 
	C168.929169,36.191628 166.466431,39.096439 163.725037,41.883186 
	C162.913803,41.466621 162.381226,41.168121 161.863068,40.492489 
	C162.490112,38.658638 162.761917,36.884434 163.773041,35.798901 
	C168.763306,30.441442 173.949326,25.266340 179.066284,20.026899 
z"/>
<path fill="#D4D5E6" opacity="1.000000" stroke="none" 
	d="
M187.000046,20.955723 
	C186.753357,19.837757 186.506653,18.719791 186.123215,17.278467 
	C193.760025,11.198017 202.884247,9.875332 212.571259,8.992334 
	C212.687439,10.092702 212.373596,11.189252 211.600403,12.636148 
	C208.094238,13.658199 205.047424,14.329903 201.625961,15.004638 
	C199.168900,15.678813 197.086487,16.349957 194.651718,17.049980 
	C191.865311,18.389929 189.431259,19.700996 186.999359,20.998745 
	C187.001495,20.985426 187.000046,20.955725 187.000046,20.955723 
z"/>
<path fill="#D4D5E6" opacity="1.000000" stroke="none" 
	d="
M133.540894,10.956928 
	C134.290527,11.732782 134.642776,12.520547 134.763855,13.922592 
	C132.352661,15.352881 130.172653,16.168890 127.627960,17.027386 
	C124.507721,18.377478 121.752159,19.685081 118.687698,21.128113 
	C116.254570,22.511976 114.130341,23.760410 112.002121,24.657398 
	C111.665192,23.202856 111.332253,22.099762 110.999298,20.996668 
	C111.514954,20.391901 112.030609,19.787136 112.822502,19.045212 
	C119.780327,16.261646 126.461922,13.615242 133.540894,10.956928 
z"/>
<path fill="#DADBEA" opacity="1.000000" stroke="none" 
	d="
M217.998169,140.011475 
	C217.998566,141.066238 217.998962,142.121002 217.997787,143.570129 
	C209.815292,142.500122 201.634384,141.035751 193.489563,139.065948 
	C193.675018,137.384232 193.824356,136.207977 194.228912,135.021576 
	C194.654266,135.010071 194.824356,135.008698 195.212204,135.291260 
	C200.293152,137.030945 205.156311,138.486694 210.462204,139.953506 
	C213.269333,139.980194 215.633759,139.995834 217.998169,140.011475 
z"/>
<path fill="#D4D5E6" opacity="1.000000" stroke="none" 
	d="
M139.985733,139.027954 
	C140.302765,140.135254 140.619797,141.242554 140.962540,142.699112 
	C133.776794,140.902359 126.565331,138.756363 119.393524,136.172974 
	C119.975380,135.151154 120.517570,134.566742 121.437439,133.987930 
	C123.537781,134.338470 125.260445,134.683426 127.203995,135.309891 
	C131.619110,136.722855 135.813339,137.854309 140.001709,138.995255 
	C139.995834,139.004745 139.985733,139.027954 139.985733,139.027954 
z"/>
<path fill="#CDCEE2" opacity="1.000000" stroke="none" 
	d="
M193.973679,135.031708 
	C193.824356,136.207977 193.675018,137.384232 193.251495,138.791901 
	C189.898438,137.721710 186.819565,136.420135 183.385422,135.099701 
	C182.110794,134.242065 181.191422,133.403290 180.261154,132.005798 
	C180.834320,130.642151 181.418381,129.837265 182.001556,129.017944 
	C182.000687,129.003510 182.002777,128.976669 182.309784,129.116776 
	C184.061691,129.849503 185.506577,130.442123 187.119659,131.330673 
	C189.516464,132.761627 191.745071,133.896667 193.973679,135.031708 
z"/>
<path fill="#CDCEE2" opacity="1.000000" stroke="none" 
	d="
M121.059753,133.982330 
	C120.517570,134.566742 119.975380,135.151154 119.174797,135.901978 
	C117.178154,135.393753 115.439911,134.719131 113.348145,134.012726 
	C111.906715,133.001190 110.818802,132.021423 109.276215,130.757172 
	C108.539963,129.998154 108.258385,129.523636 108.103683,128.767807 
	C108.819504,127.658783 109.408455,126.831085 110.257729,126.107346 
	C111.012444,126.472275 111.506828,126.733253 112.284058,127.132713 
	C113.710129,128.183121 114.853363,129.095016 116.194092,130.269455 
	C117.239975,130.703247 118.088379,130.874496 119.080490,131.312164 
	C119.836060,132.379852 120.447906,133.181091 121.059753,133.982330 
z"/>
<path fill="#F5F5FA" opacity="1.000000" stroke="none" 
	d="
M107.976807,129.049133 
	C108.258385,129.523636 108.539963,129.998154 108.953491,130.716797 
	C102.583153,133.607635 96.297531,137.337112 89.536346,138.690109 
	C72.003899,142.198563 55.514324,138.565811 41.037670,127.931709 
	C25.580856,116.577621 16.668890,101.347244 14.938188,81.951218 
	C12.134188,50.526741 30.865063,24.661823 59.226917,15.623993 
	C76.318161,10.177672 93.312531,12.150437 109.492226,21.163700 
	C105.753937,25.407280 101.832657,29.205532 97.563202,32.961082 
	C94.438217,31.610338 91.783195,29.817236 88.862114,29.083967 
	C79.597763,26.758362 70.500580,27.886070 61.522923,31.020733 
	C49.534843,35.206524 40.680378,43.052143 34.928654,54.154278 
	C30.465918,62.768387 28.305517,71.943542 29.909311,81.898163 
	C31.411295,91.220833 34.584301,99.845924 40.608688,106.928391 
	C52.242470,120.605484 67.307014,126.424675 85.211319,123.907036 
	C89.383904,123.320297 94.557671,123.687401 96.269180,117.923538 
	C96.500710,117.958221 96.964867,118.019676 97.096916,118.330963 
	C100.811584,122.111214 104.394196,125.580170 107.976807,129.049133 
z"/>
<path fill="#CDCEE2" opacity="1.000000" stroke="none" 
	d="
M97.911385,33.003784 
	C101.832657,29.205532 105.753937,25.407280 109.813057,21.306997 
	C110.125641,21.003759 110.300385,21.002556 110.737213,20.999012 
	C111.332253,22.099762 111.665192,23.202856 111.846710,24.900467 
	C111.131752,25.999998 110.568214,26.505013 109.710075,27.146120 
	C107.942169,28.851126 106.468864,30.420034 104.693024,32.137665 
	C93.905762,43.104317 88.071304,56.015839 86.603256,70.999870 
	C85.177666,70.636734 84.089806,70.318924 82.983521,69.561134 
	C83.352478,55.180618 89.696754,43.705200 97.911385,33.003784 
z"/>
<path fill="#F3F3F8" opacity="1.000000" stroke="none" 
	d="
M218.440567,140.005096 
	C215.633759,139.995834 213.269333,139.980194 210.449814,139.573792 
	C205.737915,131.747391 208.471191,123.712837 208.097061,115.951843 
	C208.044571,114.862946 209.117081,113.719818 210.057526,112.632538 
	C214.961746,113.034096 219.477280,113.404907 223.994873,114.227432 
	C224.916458,118.055145 225.648773,121.496292 226.796219,124.792953 
	C228.886642,130.798859 232.275696,132.425659 237.880051,130.522125 
	C250.407440,126.267113 260.231628,118.666977 267.169556,107.316132 
	C278.669678,88.501213 279.113190,69.085564 269.623566,49.589012 
	C265.888824,41.915958 260.662354,34.986702 253.419479,29.836008 
	C245.622650,24.291389 237.978653,18.786951 227.370865,22.709332 
	C227.149963,24.182859 227.390411,26.103266 226.582993,27.338970 
	C223.509750,32.042320 222.172363,37.031940 222.701569,42.620632 
	C222.743530,43.063812 221.297928,43.647854 220.231232,44.046070 
	C215.456543,41.639004 214.805801,45.079838 213.433350,47.890144 
	C211.857742,36.698685 207.199631,25.626467 212.922913,14.499986 
	C213.128860,14.099630 212.986832,13.520280 213.006973,13.024347 
	C228.486954,12.604667 243.032288,15.548418 255.655563,25.124763 
	C271.035614,36.792507 279.690033,52.026478 281.114288,71.536217 
	C282.560425,91.345444 276.148132,108.149529 262.367218,121.917465 
	C250.523788,133.749756 235.686844,139.521408 218.440567,140.005096 
z"/>
<path fill="#EEEFF5" opacity="1.000000" stroke="none" 
	d="
M212.751724,13.011930 
	C212.986832,13.520280 213.128860,14.099630 212.922913,14.499986 
	C207.199631,25.626467 211.857742,36.698685 213.444214,48.264763 
	C211.392868,57.152512 208.945618,65.557487 206.530396,73.971664 
	C204.968918,79.411606 205.965347,81.054001 211.404083,82.435738 
	C214.109650,83.123093 216.774582,83.970398 219.129776,84.947632 
	C218.374313,86.763771 217.443848,88.431511 217.609940,89.981789 
	C218.210159,95.584496 219.179108,101.147697 219.601074,106.793159 
	C213.795090,105.252136 208.396881,103.643761 202.999054,101.603661 
	C202.860214,99.525307 202.895920,97.841347 202.553696,96.238045 
	C200.128937,84.877823 199.616486,73.606895 203.710281,62.470863 
	C206.573654,54.681831 205.806824,46.881123 204.633286,38.805267 
	C203.489365,30.933178 199.457214,23.289238 202.000610,15.001606 
	C205.047424,14.329903 208.094238,13.658199 211.563599,12.979237 
	C212.156265,12.981155 212.326370,12.990335 212.751724,13.011930 
z"/>
<path fill="#F3F3F8" opacity="1.000000" stroke="none" 
	d="
M178.842499,19.746925 
	C173.949326,25.266340 168.763306,30.441442 163.773041,35.798901 
	C162.761917,36.884434 162.490112,38.658638 161.526352,40.558884 
	C160.455704,41.642422 159.553436,42.162914 159.044662,42.940773 
	C153.463623,51.473541 151.500534,61.161785 150.145264,71.469826 
	C150.064606,73.582550 150.034317,75.276207 149.624146,76.952408 
	C146.586655,76.610786 145.709442,75.637161 146.601379,72.670303 
	C148.988495,64.730057 151.111450,56.696362 152.900208,48.602741 
	C153.237183,47.078022 151.946289,44.043156 150.700989,43.572678 
	C148.506210,42.743484 146.448441,43.846512 146.071304,47.005180 
	C145.707870,50.049252 144.591644,53.003448 143.425751,55.886154 
	C142.714279,55.242306 142.112747,54.719681 142.092117,54.175045 
	C141.698059,43.773792 141.265610,33.371311 141.132965,22.965357 
	C141.109665,21.138031 142.264938,19.225971 143.128418,17.477749 
	C143.906128,15.903221 145.030197,14.499772 146.001511,13.020872 
	C157.467545,12.165751 168.367432,14.175380 178.842499,19.746925 
z"/>
<path fill="#F1F1F7" opacity="1.000000" stroke="none" 
	d="
M145.593796,13.014225 
	C145.030197,14.499772 143.906128,15.903221 143.128418,17.477749 
	C142.264938,19.225971 141.109665,21.138031 141.132965,22.965357 
	C141.265610,33.371311 141.698059,43.773792 142.092117,54.175045 
	C142.112747,54.719681 142.714279,55.242306 143.443710,56.266785 
	C142.098541,63.332310 140.174469,69.867294 138.742584,76.508400 
	C138.398621,78.103752 139.261765,81.242783 140.306488,81.617416 
	C143.658188,82.819328 147.355026,83.058846 150.913193,84.123993 
	C151.241364,86.858635 151.408768,89.178711 151.942291,91.411293 
	C153.159515,96.504814 154.556122,101.555466 155.448898,106.696800 
	C147.311432,107.094772 139.992676,105.949646 133.995514,100.976639 
	C134.730743,99.540718 135.701477,98.100204 135.404541,97.002655 
	C132.627808,86.738968 134.764313,76.744522 136.068390,66.532845 
	C137.353561,56.469009 137.045395,46.181412 137.117401,35.989738 
	C137.169266,28.648216 133.578812,21.185402 138.002228,14.017570 
	C140.396851,13.680907 142.791458,13.344243 145.593796,13.014225 
z"/>
<path fill="#EEEFF5" opacity="1.000000" stroke="none" 
	d="
M137.626831,14.011876 
	C133.578812,21.185402 137.169266,28.648216 137.117401,35.989738 
	C137.045395,46.181412 137.353561,56.469009 136.068390,66.532845 
	C134.764313,76.744522 132.627808,86.738968 135.404541,97.002655 
	C135.701477,98.100204 134.730743,99.540718 133.688690,100.889740 
	C131.351486,99.335670 129.673676,97.713989 127.997055,95.651962 
	C127.923805,94.054688 127.925468,92.886955 127.763054,91.742516 
	C126.281815,81.305229 126.131493,71.000305 130.475632,61.071156 
	C133.332138,54.542168 132.774261,47.951683 131.714523,41.016335 
	C130.490799,33.007809 126.000977,25.470459 127.992645,16.984898 
	C130.172653,16.168890 132.352661,15.352881 134.765717,14.267086 
	C135.749634,14.000260 136.500534,14.003222 137.626831,14.011876 
z"/>
<path fill="#F3F3F8" opacity="1.000000" stroke="none" 
	d="
M179.026321,131.977905 
	C173.001389,134.308792 167.146851,137.579819 160.904510,138.711243 
	C154.413284,139.887787 147.547302,138.996765 140.415466,139.018890 
	C139.985733,139.027954 139.995834,139.004745 139.994080,138.622803 
	C136.981613,133.509598 135.565048,128.384491 136.447449,122.789337 
	C137.033737,119.071678 137.843536,115.389267 138.924744,111.728767 
	C146.194061,112.175125 153.091949,112.583801 160.291077,113.143059 
	C163.042450,115.919380 165.492584,118.545120 167.987976,121.506836 
	C171.697601,125.221169 175.361954,128.599533 179.026321,131.977905 
z"/>
<path fill="#C6C8DF" opacity="1.000000" stroke="none" 
	d="
M179.270279,131.982071 
	C175.361954,128.599533 171.697601,125.221169 168.106049,121.213989 
	C168.790726,120.057655 169.402573,119.530136 170.298859,119.134354 
	C171.720688,120.179153 172.858078,121.092194 174.141586,122.296509 
	C175.854996,123.730820 177.422302,124.873863 179.122528,126.296982 
	C180.171127,127.395500 181.086777,128.213943 182.002441,129.032379 
	C181.418381,129.837265 180.834320,130.642151 180.126221,131.719559 
	C180.002167,131.992065 179.514236,131.986237 179.270279,131.982071 
z"/>
<path fill="#E0E0ED" opacity="1.000000" stroke="none" 
	d="
M182.001556,129.017944 
	C181.086777,128.213943 180.171127,127.395500 179.126343,125.879501 
	C180.031647,121.379814 180.661728,117.405106 182.193771,113.815346 
	C184.585709,108.210831 184.426163,103.004395 181.853302,97.546326 
	C179.890244,93.381859 178.750397,88.816696 176.659592,84.728867 
	C174.805008,81.102859 172.735641,77.196541 169.725189,74.628189 
	C162.012222,68.047897 161.708267,67.857422 164.347321,58.239464 
	C165.455902,54.199265 166.106750,50.028442 162.007111,46.651726 
	C162.697250,44.875790 163.350464,43.438519 164.003677,42.001244 
	C166.466431,39.096439 168.929169,36.191628 171.695435,33.539925 
	C170.457336,38.638752 172.840149,41.422562 176.576492,44.263279 
	C181.936600,48.338539 182.405411,53.690464 178.673584,58.794022 
	C177.505478,60.391499 176.423126,62.117599 174.981476,63.434452 
	C172.509186,65.692711 172.383240,68.224167 174.342957,70.468369 
	C181.997421,79.234039 181.425766,91.261673 186.623428,101.037155 
	C187.936111,103.505936 187.429977,107.336884 186.818909,110.351166 
	C185.546570,116.627182 183.645477,122.775734 182.002777,128.976669 
	C182.002777,128.976669 182.000687,129.003510 182.001556,129.017944 
z"/>
<path fill="#E3E3EF" opacity="1.000000" stroke="none" 
	d="
M182.309784,129.116776 
	C183.645477,122.775734 185.546570,116.627182 186.818909,110.351166 
	C187.429977,107.336884 187.936111,103.505936 186.623428,101.037155 
	C181.425766,91.261673 181.997421,79.234039 174.342957,70.468369 
	C172.383240,68.224167 172.509186,65.692711 174.981476,63.434452 
	C176.423126,62.117599 177.505478,60.391499 178.673584,58.794022 
	C182.405411,53.690464 181.936600,48.338539 176.576492,44.263279 
	C172.840149,41.422562 170.457336,38.638752 171.997650,33.391891 
	C174.766479,30.347441 177.536621,27.704126 180.652496,25.479069 
	C180.999146,27.721460 180.501587,29.727091 181.088150,31.337994 
	C183.498001,37.956497 186.237656,44.454926 188.933640,51.369186 
	C188.959564,52.494717 188.907837,53.248585 188.515015,54.069092 
	C184.292542,60.109848 180.821396,66.295929 182.180435,73.770462 
	C183.206436,79.413185 184.436676,85.063667 186.200363,90.508453 
	C187.084747,93.238647 189.362411,95.517502 191.094666,98.354874 
	C191.892319,100.431458 192.605286,102.153641 192.989685,104.103516 
	C192.106049,106.876877 191.540955,109.420410 190.997894,111.968636 
	C189.643753,118.322868 188.299622,124.679237 186.951462,131.034744 
	C185.506577,130.442123 184.061691,129.849503 182.309784,129.116776 
z"/>
<path fill="#E6E6F0" opacity="1.000000" stroke="none" 
	d="
M188.856003,50.997520 
	C186.237656,44.454926 183.498001,37.956497 181.088150,31.337994 
	C180.501587,29.727091 180.999146,27.721460 180.995865,25.440220 
	C182.786758,23.737019 184.580017,22.490923 186.686661,21.100277 
	C187.000046,20.955725 187.001495,20.985426 187.000397,21.445248 
	C187.253525,24.502720 187.325226,27.134308 187.800507,29.690863 
	C188.750198,34.799129 189.921097,39.866264 190.657364,45.098572 
	C189.828049,47.163677 189.342026,49.080597 188.856003,50.997520 
z"/>
<path fill="#C6C8DF" opacity="1.000000" stroke="none" 
	d="
M163.725037,41.883186 
	C163.350464,43.438519 162.697250,44.875790 161.694702,46.821693 
	C157.447021,54.742264 155.155884,62.584805 154.754440,71.001160 
	C154.505219,71.001907 154.006760,71.000305 153.622833,71.000771 
	C152.224487,71.017746 151.210068,71.034256 150.195633,71.050766 
	C151.500534,61.161785 153.463623,51.473541 159.044662,42.940773 
	C159.553436,42.162914 160.455704,41.642422 161.511932,40.936020 
	C162.381226,41.168121 162.913803,41.466621 163.725037,41.883186 
z"/>
<path fill="#E9EAF2" opacity="1.000000" stroke="none" 
	d="
M191.000656,44.950386 
	C189.921097,39.866264 188.750198,34.799129 187.800507,29.690863 
	C187.325226,27.134308 187.253525,24.502720 186.998245,21.458569 
	C189.431259,19.700996 191.865311,18.389929 194.650238,17.489525 
	C196.711990,25.930649 198.938660,33.896751 199.951477,42.014305 
	C200.621216,47.382309 201.054794,53.648197 198.945892,58.315502 
	C194.416031,68.340683 193.662842,78.175354 195.919540,88.625862 
	C196.508453,91.353027 196.653534,94.176025 196.662125,96.875534 
	C195.214676,96.511642 194.107559,96.227211 192.953888,95.563431 
	C192.070450,92.026337 190.745193,88.907242 190.491608,85.703339 
	C189.827866,77.316956 185.044739,68.758163 191.510422,60.573250 
	C198.371246,59.750877 195.284760,54.663883 195.930054,51.287193 
	C196.663177,47.450912 194.811630,45.377460 191.000656,44.950386 
z"/>
<path fill="#ECEDF4" opacity="1.000000" stroke="none" 
	d="
M197.002472,96.955009 
	C196.653534,94.176025 196.508453,91.353027 195.919540,88.625862 
	C193.662842,78.175354 194.416031,68.340683 198.945892,58.315502 
	C201.054794,53.648197 200.621216,47.382309 199.951477,42.014305 
	C198.938660,33.896751 196.711990,25.930649 195.002594,17.460644 
	C197.086487,16.349957 199.168900,15.678813 201.625961,15.004638 
	C199.457214,23.289238 203.489365,30.933178 204.633286,38.805267 
	C205.806824,46.881123 206.573654,54.681831 203.710281,62.470863 
	C199.616486,73.606895 200.128937,84.877823 202.553696,96.238045 
	C202.895920,97.841347 202.860214,99.525307 202.663116,101.555267 
	C200.552002,100.277397 198.777237,98.616203 197.002472,96.955009 
z"/>
<path fill="#E6E6F0" opacity="1.000000" stroke="none" 
	d="
M110.004677,27.010029 
	C110.568214,26.505013 111.131752,25.999998 111.850693,25.251915 
	C114.130341,23.760410 116.254570,22.511976 118.688934,21.572289 
	C119.492043,25.238319 119.791756,28.638517 120.525475,31.942335 
	C121.507332,36.363476 122.825508,40.709927 123.713890,45.325314 
	C118.904137,49.405659 121.806206,54.379669 121.059875,58.993668 
	C119.165520,61.612740 116.303047,64.094536 116.313354,66.564339 
	C116.344894,74.115494 117.113670,81.723587 118.363159,89.180931 
	C118.883591,92.287025 121.343750,95.068108 123.059814,98.367172 
	C123.146988,99.785690 123.096230,100.834015 123.031815,102.319916 
	C122.163589,108.548500 121.298248,114.337921 120.458405,120.131050 
	C119.931381,123.766411 119.442665,127.407326 118.936775,131.045746 
	C118.088379,130.874496 117.239975,130.703247 116.195496,129.812439 
	C116.460518,124.501930 116.356972,119.763000 117.512291,115.353943 
	C119.341843,108.371819 119.216621,101.931557 116.701385,95.021774 
	C113.839157,87.158775 111.941162,78.892906 110.302902,70.666939 
	C109.791763,68.100441 110.879829,64.733871 112.294273,62.365768 
	C115.233498,57.444881 117.074257,52.405983 115.694809,46.791721 
	C114.058907,40.133743 111.923561,33.598480 110.004677,27.010029 
z"/>
<path fill="#EBEBF3" opacity="1.000000" stroke="none" 
	d="
M123.999268,45.088451 
	C122.825508,40.709927 121.507332,36.363476 120.525475,31.942335 
	C119.791756,28.638517 119.492043,25.238319 118.997833,21.436861 
	C121.752159,19.685081 124.507721,18.377478 127.627960,17.027386 
	C126.000977,25.470459 130.490799,33.007809 131.714523,41.016335 
	C132.774261,47.951683 133.332138,54.542168 130.475632,61.071156 
	C126.131493,71.000305 126.281815,81.305229 127.763054,91.742516 
	C127.925468,92.886955 127.923805,94.054688 127.675247,95.688324 
	C126.705688,96.171844 126.059113,96.178650 125.075180,95.973694 
	C124.161560,94.224724 123.329018,92.732376 123.050720,91.142990 
	C121.274879,81.000732 120.948593,70.880615 124.367508,60.797592 
	C130.558990,58.429501 127.519989,53.404644 127.795334,49.621685 
	C127.898071,48.210186 125.342644,46.605209 123.999268,45.088451 
z"/>
<path fill="#ECEDF4" opacity="1.000000" stroke="none" 
	d="
M209.668854,112.601791 
	C209.117081,113.719818 208.044571,114.862946 208.097061,115.951843 
	C208.471191,123.712837 205.737915,131.747391 210.007095,139.562744 
	C205.156311,138.486694 200.293152,137.030945 195.214081,134.836853 
	C196.026093,125.310432 197.053986,116.522346 198.430786,107.828949 
	C202.409409,109.483025 206.039124,111.042404 209.668854,112.601791 
z"/>
<path fill="#E6E6F0" opacity="1.000000" stroke="none" 
	d="
M198.081879,107.734268 
	C197.053986,116.522346 196.026093,125.310432 194.996307,134.552917 
	C194.824356,135.008698 194.654266,135.010071 194.228912,135.021576 
	C191.745071,133.896667 189.516464,132.761627 187.119659,131.330673 
	C188.299622,124.679237 189.643753,118.322868 190.997894,111.968636 
	C191.540955,109.420410 192.106049,106.876877 193.280640,104.223267 
	C195.294067,105.321640 196.687973,106.527946 198.081879,107.734268 
z"/>
<path fill="#EEEFF5" opacity="1.000000" stroke="none" 
	d="
M138.553299,111.691071 
	C137.843536,115.389267 137.033737,119.071678 136.447449,122.789337 
	C135.565048,128.384491 136.981613,133.509598 139.999939,138.613312 
	C135.813339,137.854309 131.619110,136.722855 127.201462,134.891632 
	C127.662209,125.093285 128.346359,115.994698 129.356293,107.031448 
	C132.639160,108.674896 135.596222,110.182983 138.553299,111.691071 
z"/>
<path fill="#E9EAF2" opacity="1.000000" stroke="none" 
	d="
M129.030502,106.896103 
	C128.346359,115.994698 127.662209,125.093285 126.980583,134.610138 
	C125.260445,134.683426 123.537781,134.338470 121.437439,133.987930 
	C120.447906,133.181091 119.836060,132.379852 119.080490,131.312164 
	C119.442665,127.407326 119.931381,123.766411 120.458405,120.131050 
	C121.298248,114.337921 122.163589,108.548500 123.337044,102.451576 
	C125.447456,103.729134 127.238976,105.312622 129.030502,106.896103 
z"/>
<path fill="#E0E0ED" opacity="1.000000" stroke="none" 
	d="
M86.940994,71.045204 
	C88.071304,56.015839 93.905762,43.104317 104.686951,32.539497 
	C102.619133,38.050537 105.425285,41.899551 108.277962,45.941776 
	C113.082268,52.749447 109.754601,60.448120 101.724350,62.150681 
	C100.041435,62.507488 97.944077,63.941925 97.355225,65.408707 
	C96.930634,66.466339 98.478828,68.567276 99.526421,69.906075 
	C101.120819,71.943665 103.699142,73.429115 104.707245,75.667946 
	C108.083809,83.166779 110.885902,90.921974 114.032967,98.527290 
	C116.088661,103.495171 116.409851,108.224655 114.491043,113.483978 
	C112.943535,117.725594 112.779205,122.471855 112.001221,126.994225 
	C111.506828,126.733253 111.012444,126.472275 110.121658,125.827087 
	C108.813675,124.633255 107.902092,123.823647 106.994698,122.605942 
	C108.061981,118.065056 109.594521,113.982574 110.044609,109.784050 
	C110.427742,106.210037 110.228111,102.277336 109.086411,98.910179 
	C107.620964,94.588264 104.617828,90.810928 102.881104,86.552666 
	C99.836266,79.086998 93.062004,75.983971 86.964584,71.765976 
	C86.956314,71.525734 86.940994,71.045204 86.940994,71.045204 
z"/>
<path fill="#E3E3EF" opacity="1.000000" stroke="none" 
	d="
M112.284058,127.132713 
	C112.779205,122.471855 112.943535,117.725594 114.491043,113.483978 
	C116.409851,108.224655 116.088661,103.495171 114.032967,98.527290 
	C110.885902,90.921974 108.083809,83.166779 104.707245,75.667946 
	C103.699142,73.429115 101.120819,71.943665 99.526421,69.906075 
	C98.478828,68.567276 96.930634,66.466339 97.355225,65.408707 
	C97.944077,63.941925 100.041435,62.507488 101.724350,62.150681 
	C109.754601,60.448120 113.082268,52.749447 108.277962,45.941776 
	C105.425285,41.899551 102.619133,38.050537 104.989479,32.390778 
	C106.468864,30.420034 107.942169,28.851126 109.710075,27.146122 
	C111.923561,33.598480 114.058907,40.133743 115.694809,46.791721 
	C117.074257,52.405983 115.233498,57.444881 112.294273,62.365768 
	C110.879829,64.733871 109.791763,68.100441 110.302902,70.666939 
	C111.941162,78.892906 113.839157,87.158775 116.701385,95.021774 
	C119.216621,101.931557 119.341843,108.371819 117.512291,115.353943 
	C116.356972,119.763000 116.460518,124.501930 115.998001,129.549911 
	C114.853363,129.095016 113.710129,128.183121 112.284058,127.132713 
z"/>
<path fill="#C6C8DF" opacity="1.000000" stroke="none" 
	d="
M106.990509,123.014038 
	C107.902092,123.823647 108.813675,124.633255 109.861328,125.723122 
	C109.408455,126.831085 108.819504,127.658783 108.103683,128.767807 
	C104.394196,125.580170 100.811584,122.111214 97.421875,118.299324 
	C98.410156,117.303955 99.205536,116.651520 100.250755,115.999146 
	C100.500595,115.999214 101.000305,116.000000 101.050873,116.334122 
	C103.064461,118.783516 105.027481,120.898781 106.990509,123.014038 
z"/>
<path fill="#F8F8FB" opacity="1.000000" stroke="none" 
	d="
M97.563202,32.961082 
	C89.696754,43.705200 83.352478,55.180618 82.882278,69.818619 
	C82.556290,71.012352 82.313095,71.508614 81.667961,72.003677 
	C79.240891,71.667648 77.215752,71.332817 75.179924,70.617996 
	C77.112762,63.025417 79.253075,55.855679 80.840424,48.565533 
	C81.173820,47.034328 79.474083,45.060436 78.711205,43.290535 
	C77.259964,44.357502 75.742599,45.348553 74.389030,46.527645 
	C73.822823,47.020874 73.440338,47.872669 73.252686,48.630375 
	C70.941910,57.961010 68.528633,67.272331 66.569565,76.677719 
	C66.261337,78.157516 67.702484,81.172012 68.967964,81.598633 
	C73.488533,83.122589 78.281868,83.837479 82.963074,85.286438 
	C83.225288,87.342209 83.374588,89.001846 83.790001,90.591972 
	C85.123741,95.697296 86.555855,100.776939 87.539917,105.963272 
	C76.576721,108.138138 66.966286,106.160027 58.719414,99.080582 
	C56.660011,97.312706 54.928326,94.559875 52.224010,97.448784 
	C49.607574,100.243797 52.323589,102.296005 54.136833,104.120483 
	C55.527328,105.519592 57.105793,106.818085 58.805946,107.809174 
	C69.233528,113.887825 80.291557,115.246414 92.188362,112.126976 
	C93.656136,114.169662 94.846901,116.029259 96.037659,117.888863 
	C94.557671,123.687401 89.383904,123.320297 85.211319,123.907036 
	C67.307014,126.424675 52.242470,120.605484 40.608688,106.928391 
	C34.584301,99.845924 31.411295,91.220833 29.909311,81.898163 
	C28.305517,71.943542 30.465918,62.768387 34.928654,54.154278 
	C40.680378,43.052143 49.534843,35.206524 61.522923,31.020733 
	C70.500580,27.886070 79.597763,26.758362 88.862114,29.083967 
	C91.783195,29.817236 94.438217,31.610338 97.563202,32.961082 
M49.038231,53.432747 
	C49.038719,54.263271 48.739769,55.264854 49.097607,55.891232 
	C50.050743,57.559624 51.286633,59.066483 52.410099,60.637562 
	C53.615238,58.981949 55.275852,57.478718 55.895287,55.627159 
	C56.494881,53.834911 56.499519,51.519562 55.883846,49.738770 
	C55.303955,48.061485 53.574413,46.781673 52.350643,45.326996 
	C51.250271,46.741947 49.978962,48.062405 49.122265,49.612068 
	C48.699387,50.376995 49.041843,51.565029 49.038231,53.432747 
z"/>
<path fill="#BABCD7" opacity="1.000000" stroke="none" 
	d="
M96.269180,117.923538 
	C94.846901,116.029259 93.656136,114.169662 92.173096,111.780960 
	C90.570549,109.456734 89.260284,107.661606 87.950020,105.866486 
	C86.555855,100.776939 85.123741,95.697296 83.790001,90.591972 
	C83.374588,89.001846 83.225288,87.342209 82.889175,84.907150 
	C82.548172,82.074585 82.272156,80.049271 82.022499,77.594528 
	C82.055870,75.445038 82.062889,73.724953 82.069901,72.004875 
	C82.313095,71.508614 82.556290,71.012352 82.900711,70.258606 
	C84.089806,70.318924 85.177666,70.636734 86.603256,70.999870 
	C86.940994,71.045204 86.956314,71.525734 86.959702,72.215431 
	C86.972008,75.604881 86.980927,78.304634 86.987534,81.431320 
	C87.784927,94.587677 92.985992,105.639137 100.000916,115.999084 
	C99.205536,116.651520 98.410156,117.303955 97.289825,117.988037 
	C96.964867,118.019676 96.500710,117.958221 96.269180,117.923538 
z"/>
<path fill="#F6F6FA" opacity="1.000000" stroke="none" 
	d="
M220.008850,106.725815 
	C219.179108,101.147697 218.210159,95.584496 217.609940,89.981789 
	C217.443848,88.431511 218.374313,86.763771 219.517792,84.959763 
	C221.625076,85.129509 223.110992,85.979530 224.384888,85.733162 
	C226.244080,85.373596 227.950882,84.226234 229.722656,83.414703 
	C228.320892,81.922134 227.182373,79.857933 225.458771,79.064140 
	C222.495575,77.699455 219.167572,77.126900 215.944473,75.825729 
	C215.370056,74.894577 214.843857,74.359550 214.359283,73.458542 
	C214.876816,71.727196 215.352753,70.361832 216.192871,68.950050 
	C216.527740,67.878151 216.498444,66.852654 216.530579,65.465332 
	C217.049805,63.735527 217.507599,62.367558 218.295471,60.950516 
	C218.523285,60.206764 218.421036,59.512085 218.373291,58.417511 
	C219.133087,53.400555 219.838379,48.783493 220.543671,44.166431 
	C221.297928,43.647854 222.743530,43.063812 222.701569,42.620632 
	C222.172363,37.031940 223.509750,32.042320 226.582993,27.338970 
	C227.390411,26.103266 227.149963,24.182859 227.370865,22.709332 
	C237.978653,18.786951 245.622650,24.291389 253.419479,29.836008 
	C260.662354,34.986702 265.888824,41.915958 269.623566,49.589012 
	C279.113190,69.085564 278.669678,88.501213 267.169556,107.316132 
	C260.231628,118.666977 250.407440,126.267113 237.880051,130.522125 
	C232.275696,132.425659 228.886642,130.798859 226.796219,124.792953 
	C225.648773,121.496292 224.916458,118.055145 224.335999,114.039246 
	C233.234619,112.357994 240.963287,109.619499 245.757996,101.900093 
	C246.466019,100.760193 245.367477,98.498199 245.104767,96.755371 
	C243.524796,97.166290 241.327423,97.054749 240.465485,98.073288 
	C235.050110,104.472473 228.042160,106.720657 220.008850,106.725815 
M242.046967,56.893459 
	C243.286819,58.131859 244.526672,59.370258 245.766525,60.608658 
	C246.828033,59.165604 248.395630,57.856785 248.822983,56.245533 
	C249.357880,54.228947 249.421036,51.821419 248.816986,49.849400 
	C248.297302,48.152885 246.554932,46.830910 245.353195,45.343327 
	C244.249146,46.916176 242.695618,48.352467 242.164825,50.099487 
	C241.610870,51.922882 242.041977,54.045570 242.046967,56.893459 
z"/>
<path fill="#1B2080" opacity="1.000000" stroke="none" 
	d="
M219.601074,106.793159 
	C228.042160,106.720657 235.050110,104.472473 240.465485,98.073288 
	C241.327423,97.054749 243.524796,97.166290 245.104767,96.755371 
	C245.367477,98.498199 246.466019,100.760193 245.757996,101.900093 
	C240.963287,109.619499 233.234619,112.357994 224.333923,113.587532 
	C219.477280,113.404907 214.961746,113.034096 210.057526,112.632538 
	C206.039124,111.042404 202.409409,109.483025 198.430786,107.828949 
	C196.687973,106.527946 195.294067,105.321640 193.609192,103.995575 
	C192.605286,102.153641 191.892319,100.431458 191.241562,98.098694 
	C191.869324,96.973000 192.434891,96.457893 193.000458,95.942780 
	C194.107559,96.227211 195.214676,96.511642 196.662140,96.875534 
	C198.777237,98.616203 200.552002,100.277397 202.662720,101.986984 
	C208.396881,103.643761 213.795090,105.252136 219.601074,106.793159 
z"/>
<path fill="#1B2080" opacity="1.000000" stroke="none" 
	d="
M220.231232,44.046070 
	C219.838379,48.783493 219.133087,53.400555 218.238220,58.666473 
	C218.020905,59.876747 217.993149,60.438171 217.965393,60.999588 
	C217.507599,62.367558 217.049805,63.735527 216.369263,65.751328 
	C216.040573,67.264923 215.934631,68.130692 215.828690,68.996460 
	C215.352753,70.361832 214.876816,71.727196 214.217743,73.757233 
	C214.687286,75.021881 215.339981,75.621872 215.992691,76.221863 
	C219.167572,77.126900 222.495575,77.699455 225.458771,79.064140 
	C227.182373,79.857933 228.320892,81.922134 229.722656,83.414703 
	C227.950882,84.226234 226.244080,85.373596 224.384888,85.733162 
	C223.110992,85.979530 221.625076,85.129509 219.845917,84.757477 
	C216.774582,83.970398 214.109650,83.123093 211.404083,82.435738 
	C205.965347,81.054001 204.968918,79.411606 206.530396,73.971664 
	C208.945618,65.557487 211.392868,57.152512 213.815674,48.369015 
	C214.805801,45.079838 215.456543,41.639004 220.231232,44.046070 
z"/>
<path fill="#1B2080" opacity="1.000000" stroke="none" 
	d="
M150.918686,83.669693 
	C147.355026,83.058846 143.658188,82.819328 140.306488,81.617416 
	C139.261765,81.242783 138.398621,78.103752 138.742584,76.508400 
	C140.174469,69.867294 142.098541,63.332310 143.824097,56.377762 
	C144.591644,53.003448 145.707870,50.049252 146.071304,47.005180 
	C146.448441,43.846512 148.506210,42.743484 150.700989,43.572678 
	C151.946289,44.043156 153.237183,47.078022 152.900208,48.602741 
	C151.111450,56.696362 148.988495,64.730057 146.601379,72.670303 
	C145.709442,75.637161 146.586655,76.610786 149.667633,77.289772 
	C150.153168,78.092567 150.215332,78.540543 150.208466,79.328331 
	C150.399185,81.001999 150.658936,82.335846 150.918686,83.669693 
z"/>
<path fill="#BABCD7" opacity="1.000000" stroke="none" 
	d="
M150.277496,78.988510 
	C150.215332,78.540543 150.153168,78.092567 150.047516,77.307236 
	C150.034317,75.276207 150.064606,73.582550 150.145264,71.469826 
	C151.210068,71.034256 152.224487,71.017746 153.621399,71.444946 
	C154.001144,74.259720 153.998444,76.630791 153.623795,79.001846 
	C152.260406,78.997398 151.268967,78.992950 150.277496,78.988510 
z"/>
<path fill="#1B2080" opacity="1.000000" stroke="none" 
	d="
M129.356293,107.031448 
	C127.238976,105.312622 125.447456,103.729134 123.350708,102.013992 
	C123.096230,100.834015 123.146988,99.785690 123.193344,98.067245 
	C123.930145,96.993233 124.671341,96.589348 125.412544,96.185455 
	C126.059113,96.178650 126.705688,96.171844 127.674057,96.128670 
	C129.673676,97.713989 131.351486,99.335670 133.336136,101.044250 
	C139.992676,105.949646 147.311432,107.094772 155.797226,106.827438 
	C157.714279,108.920700 158.852066,110.956589 159.989838,112.992477 
	C153.091949,112.583801 146.194061,112.175125 138.924744,111.728760 
	C135.596222,110.182983 132.639160,108.674896 129.356293,107.031448 
z"/>
<path fill="#B5B7D5" opacity="1.000000" stroke="none" 
	d="
M160.291077,113.143059 
	C158.852066,110.956589 157.714279,108.920700 156.228165,106.754181 
	C154.556122,101.555466 153.159515,96.504814 151.942291,91.411293 
	C151.408768,89.178711 151.241364,86.858635 150.913193,84.123993 
	C150.658936,82.335846 150.399185,81.001999 150.208466,79.328331 
	C151.268967,78.992950 152.260406,78.997398 153.864441,79.009628 
	C154.477005,79.017403 154.958359,79.025764 154.963562,79.474312 
	C155.037552,93.204277 159.747299,104.766548 168.024994,115.353836 
	C168.723297,116.788208 169.368866,117.895409 170.014435,119.002609 
	C169.402573,119.530136 168.790726,120.057655 168.060791,120.878021 
	C165.492584,118.545120 163.042450,115.919380 160.291077,113.143059 
z"/>
<path fill="#DBDCEA" opacity="1.000000" stroke="none" 
	d="
M155.003662,71.000404 
	C155.155884,62.584805 157.447021,54.742264 161.657776,47.160358 
	C166.106750,50.028442 165.455902,54.199265 164.347321,58.239464 
	C161.708267,67.857422 162.012222,68.047897 169.725189,74.628189 
	C172.735641,77.196541 174.805008,81.102859 176.659592,84.728867 
	C178.750397,88.816696 179.890244,93.381859 181.853302,97.546326 
	C184.426163,103.004395 184.585709,108.210831 182.193771,113.815346 
	C180.661728,117.405106 180.031647,121.379814 178.993408,125.599434 
	C177.422302,124.873863 175.854996,123.730820 174.143829,121.895126 
	C174.724915,118.675385 174.962341,115.856224 176.267853,113.676888 
	C179.928757,107.565559 178.779297,102.171249 175.141663,96.555641 
	C172.452499,92.404221 170.914185,87.420685 167.856949,83.616486 
	C164.122284,78.969307 159.335480,75.167686 155.003662,71.000404 
z"/>
<path fill="#D4D5E6" opacity="1.000000" stroke="none" 
	d="
M154.754440,71.001160 
	C159.335480,75.167686 164.122284,78.969307 167.856949,83.616486 
	C170.914185,87.420685 172.452499,92.404221 175.141663,96.555641 
	C178.779297,102.171249 179.928757,107.565559 176.267853,113.676888 
	C174.962341,115.856224 174.724915,118.675385 173.997711,121.603859 
	C172.858078,121.092194 171.720688,120.179153 170.298859,119.134354 
	C169.368866,117.895409 168.723297,116.788208 168.178131,115.020081 
	C172.013840,108.201866 172.368042,102.652756 166.811813,96.942451 
	C163.953262,94.004623 162.679611,89.574585 160.411224,85.995392 
	C158.839920,83.516075 156.792847,81.338280 154.958359,79.025764 
	C154.958359,79.025764 154.477005,79.017403 154.236359,79.009628 
	C153.998444,76.630791 154.001144,74.259720 154.005310,71.444481 
	C154.006760,71.000305 154.505219,71.001907 154.754440,71.001160 
z"/>
<path fill="#E6E6F0" opacity="1.000000" stroke="none" 
	d="
M192.953888,95.563431 
	C192.434891,96.457893 191.869324,96.973000 191.156860,97.744293 
	C189.362411,95.517502 187.084747,93.238647 186.200363,90.508453 
	C184.436676,85.063667 183.206436,79.413185 182.180435,73.770462 
	C180.821396,66.295929 184.292542,60.109848 188.588959,54.461601 
	C189.715805,56.705189 190.427612,58.622906 191.139420,60.540623 
	C185.044739,68.758163 189.827866,77.316956 190.491608,85.703339 
	C190.745193,88.907242 192.070450,92.026337 192.953888,95.563431 
z"/>
<path fill="#1F2381" opacity="1.000000" stroke="none" 
	d="
M191.510422,60.573250 
	C190.427612,58.622906 189.715805,56.705189 188.930054,54.394962 
	C188.907837,53.248585 188.959564,52.494717 188.933640,51.369186 
	C189.342026,49.080597 189.828049,47.163677 190.657364,45.098572 
	C194.811630,45.377460 196.663177,47.450912 195.930054,51.287193 
	C195.284760,54.663883 198.371246,59.750877 191.510422,60.573250 
z"/>
<path fill="#E9EAF2" opacity="1.000000" stroke="none" 
	d="
M125.075180,95.973701 
	C124.671341,96.589348 123.930145,96.993233 123.055420,97.697052 
	C121.343750,95.068108 118.883591,92.287025 118.363159,89.180931 
	C117.113670,81.723587 116.344894,74.115494 116.313354,66.564339 
	C116.303047,64.094536 119.165520,61.612740 121.277985,59.166985 
	C122.561539,59.758224 123.281311,60.318909 124.001083,60.879585 
	C120.948593,70.880615 121.274879,81.000732 123.050720,91.142990 
	C123.329018,92.732376 124.161560,94.224724 125.075180,95.973701 
z"/>
<path fill="#1F2381" opacity="1.000000" stroke="none" 
	d="
M124.367508,60.797592 
	C123.281311,60.318909 122.561539,59.758224 121.623672,59.024227 
	C121.806206,54.379669 118.904137,49.405659 123.713890,45.325314 
	C125.342644,46.605209 127.898071,48.210186 127.795334,49.621685 
	C127.519989,53.404644 130.558990,58.429501 124.367508,60.797592 
z"/>
<path fill="#DADBEA" opacity="1.000000" stroke="none" 
	d="
M86.989853,81.004387 
	C86.980927,78.304634 86.972008,75.604881 86.967972,72.455673 
	C93.062004,75.983971 99.836266,79.086998 102.881104,86.552666 
	C104.617828,90.810928 107.620964,94.588264 109.086411,98.910179 
	C110.228111,102.277336 110.427742,106.210037 110.044609,109.784050 
	C109.594521,113.982574 108.061981,118.065056 106.994690,122.605957 
	C105.027481,120.898781 103.064461,118.783516 101.340332,116.113876 
	C104.976639,109.189529 105.286003,103.060028 100.590897,97.043297 
	C97.158997,92.645340 94.107193,87.951485 90.698036,83.534569 
	C89.828629,82.408173 88.245216,81.832886 86.989853,81.004387 
z"/>
<path fill="#D2D3E5" opacity="1.000000" stroke="none" 
	d="
M86.987534,81.431320 
	C88.245216,81.832886 89.828629,82.408173 90.698036,83.534569 
	C94.107193,87.951485 97.158997,92.645340 100.590897,97.043297 
	C105.286003,103.060028 104.976639,109.189529 101.289764,115.779755 
	C101.000305,116.000000 100.500595,115.999214 100.250755,115.999146 
	C92.985992,105.639137 87.784927,94.587677 86.987534,81.431320 
z"/>
<path fill="#1B2080" opacity="1.000000" stroke="none" 
	d="
M81.996147,78.023949 
	C82.272156,80.049271 82.548172,82.074585 82.898087,84.479202 
	C78.281868,83.837479 73.488533,83.122589 68.967964,81.598633 
	C67.702484,81.172012 66.261337,78.157516 66.569565,76.677719 
	C68.528633,67.272331 70.941910,57.961010 73.252686,48.630375 
	C73.440338,47.872669 73.822823,47.020874 74.389030,46.527645 
	C75.742599,45.348553 77.259964,44.357502 78.711205,43.290535 
	C79.474083,45.060436 81.173820,47.034328 80.840424,48.565533 
	C79.253075,55.855679 77.112762,63.025417 75.041061,70.976868 
	C74.585335,73.075035 74.257759,74.434326 73.885269,75.980034 
	C76.895195,76.738525 79.445671,77.381241 81.996147,78.023949 
z"/>
<path fill="#1B2080" opacity="1.000000" stroke="none" 
	d="
M87.539917,105.963272 
	C89.260284,107.661606 90.570549,109.456734 91.896080,111.597878 
	C80.291557,115.246414 69.233528,113.887825 58.805946,107.809174 
	C57.105793,106.818085 55.527328,105.519592 54.136833,104.120483 
	C52.323589,102.296005 49.607574,100.243797 52.224010,97.448784 
	C54.928326,94.559875 56.660011,97.312706 58.719414,99.080582 
	C66.966286,106.160027 76.576721,108.138138 87.539917,105.963272 
z"/>
<path fill="#1F2381" opacity="1.000000" stroke="none" 
	d="
M49.038116,52.997181 
	C49.041843,51.565029 48.699387,50.376995 49.122265,49.612068 
	C49.978962,48.062405 51.250271,46.741947 52.350643,45.326996 
	C53.574413,46.781673 55.303955,48.061485 55.883846,49.738770 
	C56.499519,51.519562 56.494881,53.834911 55.895287,55.627159 
	C55.275852,57.478718 53.615238,58.981949 52.410103,60.637566 
	C51.286633,59.066483 50.050743,57.559624 49.097607,55.891232 
	C48.739769,55.264854 49.038719,54.263271 49.038116,52.997181 
z"/>
<path fill="#F5F5FA" opacity="1.000000" stroke="none" 
	d="
M82.022499,77.594528 
	C79.445671,77.381241 76.895195,76.738525 73.885269,75.980034 
	C74.257759,74.434326 74.585335,73.075035 75.051758,71.356857 
	C77.215752,71.332817 79.240891,71.667648 81.667969,72.003677 
	C82.062889,73.724953 82.055870,75.445038 82.022499,77.594528 
z"/>
<path fill="#1F2381" opacity="1.000000" stroke="none" 
	d="
M242.044708,56.465439 
	C242.041977,54.045570 241.610870,51.922882 242.164825,50.099487 
	C242.695618,48.352467 244.249146,46.916176 245.353195,45.343327 
	C246.554932,46.830910 248.297302,48.152885 248.816986,49.849400 
	C249.421036,51.821419 249.357880,54.228947 248.822983,56.245533 
	C248.395630,57.856785 246.828033,59.165604 245.766525,60.608658 
	C244.526672,59.370258 243.286819,58.131859 242.044708,56.465439 
z"/>
<path fill="#F3F3F8" opacity="1.000000" stroke="none" 
	d="
M216.192871,68.950050 
	C215.934631,68.130692 216.040573,67.264923 216.307831,66.113159 
	C216.498444,66.852654 216.527740,67.878151 216.192871,68.950050 
z"/>
<path fill="#F3F3F8" opacity="1.000000" stroke="none" 
	d="
M218.295471,60.950516 
	C217.993149,60.438171 218.020905,59.876747 218.183716,59.066368 
	C218.421036,59.512085 218.523285,60.206764 218.295471,60.950516 
z"/>
<path fill="#F3F3F8" opacity="1.000000" stroke="none" 
	d="
M215.944473,75.825729 
	C215.339981,75.621872 214.687286,75.021881 214.176132,74.123207 
	C214.843857,74.359550 215.370056,74.894577 215.944473,75.825729 
z"/>
<path fill="#CDCEE2" opacity="1.000000" stroke="none" 
	d="
M154.963562,79.474312 
	C156.792847,81.338280 158.839920,83.516075 160.411224,85.995392 
	C162.679611,89.574585 163.953262,94.004623 166.811813,96.942451 
	C172.368042,102.652756 172.013840,108.201866 168.125397,114.692917 
	C159.747299,104.766548 155.037552,93.204277 154.963562,79.474312 
z"/>
</svg>