<svg width="19" height="20" viewBox="0 0 19 20" fill="none" xmlns="http://www.w3.org/2000/svg">
<path d="M1.83333 9.21667L0 9.03333C0.0916667 8.33056 0.248264 7.64687 0.469792 6.98229C0.691319 6.31771 0.993056 5.6875 1.375 5.09167L2.93333 6.05417C2.62778 6.52778 2.38715 7.03194 2.21146 7.56667C2.03576 8.10139 1.90972 8.65139 1.83333 9.21667ZM2.65833 16.4583C2.15417 15.9694 1.71875 15.4309 1.35208 14.8427C0.985417 14.2545 0.6875 13.6319 0.458333 12.975L2.2 12.3792C2.38333 12.9139 2.62014 13.4142 2.91042 13.8802C3.20069 14.3462 3.54444 14.7778 3.94167 15.175L2.65833 16.4583ZM5.17917 3.80833L4.21667 2.25C4.8125 1.86806 5.44271 1.56632 6.10729 1.34479C6.77187 1.12326 7.45556 0.966667 8.15833 0.875L8.34167 2.70833C7.77639 2.78472 7.22639 2.91076 6.69167 3.08646C6.15694 3.26215 5.65278 3.50278 5.17917 3.80833ZM9.12083 19.1625C8.58611 19.1625 8.05521 19.1205 7.52813 19.0365C7.00104 18.9524 6.49306 18.8111 6.00417 18.6125L6.6 16.8708C7.0125 17.0083 7.425 17.1191 7.8375 17.2031C8.25 17.2872 8.67778 17.3292 9.12083 17.3292V19.1625ZM14.3 4.81667C13.9028 4.41944 13.4712 4.07569 13.0052 3.78542C12.5392 3.49514 12.0389 3.25833 11.5042 3.075L12.1 1.33333C12.7569 1.5625 13.3795 1.86042 13.9677 2.22708C14.5559 2.59375 15.0944 3.02917 15.5833 3.53333L14.3 4.81667ZM16.2708 18.4292L13.7042 15.8625V18.2458H11.8708V12.7458H17.3708V14.5792H14.9875L17.5542 17.1458L16.2708 18.4292ZM16.4542 9.99583C16.4542 9.55278 16.4122 9.125 16.3281 8.7125C16.2441 8.3 16.1333 7.8875 15.9958 7.475L17.7375 6.87917C17.9361 7.36806 18.0774 7.87604 18.1615 8.40313C18.2455 8.93021 18.2875 9.46111 18.2875 9.99583H16.4542Z" fill="black" fill-opacity="0.6"/>
</svg>
