<svg width="20" height="20" viewBox="0 0 20 20" fill="none" xmlns="http://www.w3.org/2000/svg">
<path d="M2.02539 9.1L0.0253906 8.9C0.125391 8.13333 0.296224 7.3875 0.537891 6.6625C0.779557 5.9375 1.10872 5.25 1.52539 4.6L3.22539 5.65C2.89206 6.16667 2.62956 6.71667 2.43789 7.3C2.24622 7.88333 2.10872 8.48333 2.02539 9.1ZM2.92539 17C2.37539 16.4667 1.90039 15.8792 1.50039 15.2375C1.10039 14.5958 0.775391 13.9167 0.525391 13.2L2.42539 12.55C2.62539 13.1333 2.88372 13.6792 3.20039 14.1875C3.51706 14.6958 3.89206 15.1667 4.32539 15.6L2.92539 17ZM5.67539 3.2L4.62539 1.5C5.27539 1.08333 5.96289 0.754167 6.68789 0.5125C7.41289 0.270833 8.15872 0.1 8.92539 0L9.12539 2C8.50872 2.08333 7.90872 2.22083 7.32539 2.4125C6.74206 2.60417 6.19206 2.86667 5.67539 3.2ZM9.97539 19.95C9.39206 19.95 8.81289 19.9042 8.23789 19.8125C7.66289 19.7208 7.10872 19.5667 6.57539 19.35L7.22539 17.45C7.67539 17.6 8.12539 17.7208 8.57539 17.8125C9.02539 17.9042 9.49206 17.95 9.97539 17.95V19.95ZM15.6254 4.3C15.1921 3.86667 14.7212 3.49167 14.2129 3.175C13.7046 2.85833 13.1587 2.6 12.5754 2.4L13.2254 0.5C13.9421 0.75 14.6212 1.075 15.2629 1.475C15.9046 1.875 16.4921 2.35 17.0254 2.9L15.6254 4.3ZM17.7754 19.15L14.9754 16.35V18.95H12.9754V12.95H18.9754V14.95H16.3754L19.1754 17.75L17.7754 19.15ZM17.9754 9.95C17.9754 9.46667 17.9296 9 17.8379 8.55C17.7462 8.1 17.6254 7.65 17.4754 7.2L19.3754 6.55C19.5921 7.08333 19.7462 7.6375 19.8379 8.2125C19.9296 8.7875 19.9754 9.36667 19.9754 9.95H17.9754Z" fill="#1C1B1F" fill-opacity="0.4"/>
</svg>
