<svg width="227" height="155" viewBox="0 0 227 155" fill="none" xmlns="http://www.w3.org/2000/svg">
<path d="M89.5932 144.551C83.9444 134.467 76.8056 109.101 87.0632 104.338C122.383 87.9359 161.019 88.1011 215.574 93.7346C233.099 95.5443 225.141 127.467 213.582 140.7C202.094 153.852 163.622 144.551 163.622 144.551C163.622 144.551 101.764 166.276 89.5932 144.551Z" fill="#0B57B3" stroke="black" stroke-width="0.446976"/>
<rect x="5.64746" y="73.1133" width="70.4566" height="66.8008" rx="12.0683" transform="rotate(4.419 5.64746 73.1133)" fill="#012C5F"/>
<path d="M106.903 68.2163C106.338 64.0741 106.832 59.8564 108.338 55.9565L109.697 52.4357C110.989 49.0878 112.733 45.932 114.88 43.056L115.44 42.3049C118.498 38.2077 122.239 34.668 126.5 31.8412L127.798 30.9794C130.6 29.1203 133.661 27.6865 136.883 26.7247L140.297 25.7056C145.303 24.2114 150.662 24.4197 155.536 26.2976L156.437 26.6449C159.439 27.8013 162.112 29.6744 164.223 32.1008C165.818 33.9341 167.061 36.0464 167.888 38.3314L169.192 41.9326C170.496 45.5351 170.678 49.4483 169.712 53.156C168.991 55.9265 167.652 58.4976 165.795 60.6762L160.174 67.2694C158.735 68.9573 157.173 70.5358 155.499 71.9918L148.459 78.1182C145.505 80.6885 142.151 82.759 138.529 84.2481L133.983 86.1174C130.677 87.4766 127.055 87.8728 123.533 87.26C120.394 86.7137 117.443 85.3839 114.953 83.3939L114.642 83.1451C110.532 79.8595 107.844 75.119 107.133 69.9055L106.903 68.2163Z" fill="#FBA541"/>
<path d="M125.871 35.6348C123.173 34.8621 120.713 33.4224 118.718 31.4485L118.135 30.8717C116.776 29.5271 115.648 27.9684 114.794 26.2578L114.729 26.1281C113.612 23.8893 113.009 21.4295 112.963 18.928L112.961 18.8103C112.925 16.8368 113.251 14.8734 113.922 13.0172L113.995 12.8145C115.151 9.61686 117.325 6.88678 120.182 5.04311C121.865 3.95648 123.762 3.20249 125.731 2.82937C127.215 2.54815 128.745 2.47997 130.248 2.63202L133.319 2.94278C135.11 3.12401 136.816 3.80104 138.243 4.89782C139.622 5.95696 140.69 7.36777 141.335 8.98211L142.51 11.9203C143.017 13.1888 143.4 14.5033 143.655 15.8455L144.316 19.3378C144.718 21.4584 144.674 23.6395 144.187 25.7421L143.891 27.016C143.378 29.2287 142.211 31.2355 140.541 32.775C139.377 33.8478 138.001 34.6642 136.502 35.1714L135.581 35.4827C132.524 36.517 129.224 36.5951 126.121 35.7064L125.871 35.6348Z" fill="#E28E83"/>
<path d="M87.3272 96.9917C85.1154 96.1372 83.1378 94.7702 81.557 93.003L81.01 92.3916C80.1124 91.3882 79.4124 90.2242 78.947 88.9609L78.8793 88.7772C78.2218 86.9927 78.086 85.0579 78.4879 83.1991C78.7958 81.775 79.4108 80.4352 80.2899 79.2733L80.6197 78.8374C82.1745 76.7824 84.3268 75.2587 86.7817 74.4752L87.8954 74.1198C89.4667 73.6183 91.1055 73.3601 92.7549 73.3541L93.1802 73.3526C94.6088 73.3474 96.0334 73.5039 97.4269 73.8191L100.756 74.572C102.04 74.8624 103.233 75.4644 104.229 76.3249C105.47 77.3962 106.353 78.8217 106.759 80.4097L107.176 82.0398C107.449 83.1076 107.589 84.205 107.593 85.3071L107.6 87.3135C107.607 89.191 107.126 91.0382 106.205 92.6742C105.125 94.5908 103.487 96.1349 101.511 97.0999C100.394 97.645 99.1912 97.995 97.9565 98.1335L96.3338 98.3155C93.4929 98.6342 90.6171 98.2627 87.9505 97.2325L87.3272 96.9917Z" fill="#D85747"/>
</svg>
